<?xml version="1.0" standalone="no"?>
<!DOCTYPE svg PUBLIC "-//W3C//DTD SVG 20010904//EN"
 "http://www.w3.org/TR/2001/REC-SVG-20010904/DTD/svg10.dtd">
<svg version="1.0" xmlns="http://www.w3.org/2000/svg"
 width="1024.000000pt" height="1024.000000pt" viewBox="0 0 1024.000000 1024.000000"
 preserveAspectRatio="xMidYMid meet">

<g transform="translate(0.000000,1024.000000) scale(0.100000,-0.100000)"
fill="#000000" stroke="none">
<path d="M0 9560 c0 -374 4 -680 8 -680 35 0 295 106 407 167 75 40 375 182
429 203 15 5 26 15 26 22 0 10 2 10 9 -1 7 -11 13 -11 37 2 39 22 98 46 159
64 28 8 61 21 75 28 26 14 119 49 157 60 12 3 24 1 28 -5 3 -6 10 -8 14 -6 4
3 7 -5 6 -16 -2 -27 2 -25 -195 -98 -180 -67 -506 -203 -611 -256 -88 -44
-336 -150 -424 -181 -38 -13 -82 -29 -97 -35 l-28 -10 0 -474 c0 -261 2 -474
6 -474 3 0 37 14 77 31 40 17 109 44 155 60 45 16 112 45 150 63 37 18 90 39
117 46 28 7 55 17 61 22 7 5 49 22 94 39 46 16 91 34 102 40 17 9 94 38 308
114 96 34 136 50 400 165 250 108 367 144 342 103 -22 -35 -545 -260 -842
-363 -107 -37 -213 -75 -235 -84 -22 -10 -121 -46 -220 -81 -158 -56 -227 -82
-460 -173 l-50 -20 -3 -3916 -2 -3916 3670 0 c2271 0 3677 4 3688 9 24 13 272
121 278 121 3 0 33 13 67 29 34 16 73 32 87 36 52 16 -1 -23 -83 -62 -45 -21
-124 -59 -177 -85 l-95 -47 1403 0 1402 -1 0 2854 0 2855 -29 43 c-16 24 -55
93 -86 153 -32 61 -61 115 -65 120 -5 6 -33 55 -63 110 -29 55 -71 132 -92
170 -21 39 -55 100 -76 136 -46 80 -192 348 -307 564 -47 88 -103 189 -125
225 -23 36 -57 94 -77 130 -21 36 -70 121 -110 190 -40 69 -81 139 -90 155
-10 17 -32 54 -50 83 -29 45 -32 56 -22 77 27 59 68 23 178 -155 202 -329 276
-457 418 -729 68 -130 159 -301 201 -381 43 -80 108 -205 146 -278 37 -72 79
-147 93 -165 14 -18 50 -77 81 -132 31 -55 61 -104 66 -109 5 -6 9 845 9 2157
l0 2167 -331 0 c-307 0 -331 -1 -325 -17 6 -16 6 -16 -12 0 -18 17 -42 23 -42
11 0 -3 11 -15 24 -25 13 -10 36 -40 52 -66 15 -27 32 -52 38 -56 8 -6 7 -7
-2 -5 -7 2 -27 28 -45 58 -18 30 -43 59 -55 65 -12 5 -22 15 -22 22 0 7 -5 13
-10 13 -12 0 -4 -43 16 -80 16 -31 35 -92 31 -97 -5 -4 -54 114 -63 150 -3 15
-10 27 -15 27 -5 0 -6 -7 -3 -15 4 -8 2 -15 -4 -15 -5 0 -13 7 -16 16 -4 9 -9
15 -11 12 -3 -3 4 -27 15 -53 11 -26 19 -50 16 -52 -5 -6 -27 32 -41 71 -5 16
-16 31 -23 34 -9 3 -6 -9 7 -34 12 -21 21 -43 21 -49 0 -6 14 -22 30 -37 17
-14 30 -32 30 -40 -1 -8 -8 -4 -19 10 -11 12 -25 20 -33 17 -8 -3 -32 10 -53
30 -22 19 -35 35 -29 35 5 0 23 -13 39 -30 35 -36 47 -39 32 -6 -7 13 -15 22
-19 20 -8 -5 -45 40 -53 65 -5 16 -19 18 -119 18 -96 0 -113 -2 -109 -14 4
-10 8 -11 12 -4 5 7 15 4 30 -10 25 -23 41 -19 21 6 -7 8 -10 15 -7 15 9 0 99
-91 115 -115 12 -18 12 -18 7 -1 -5 16 -3 17 11 5 10 -8 12 -15 5 -17 -6 -2 8
-22 31 -44 l43 -40 -44 36 c-25 20 -48 36 -52 36 -3 0 -12 14 -19 30 -13 31
-66 77 -77 67 -3 -4 9 -21 27 -38 41 -42 66 -79 51 -79 -6 0 -11 5 -11 11 0
15 -121 132 -128 124 -8 -8 68 -89 93 -98 6 -3 7 -7 4 -11 -9 -10 -115 94
-123 121 -5 16 -15 21 -36 21 -23 -1 -27 -4 -20 -17 5 -9 11 -25 15 -36 3 -11
9 -15 13 -10 10 13 35 18 27 5 -3 -5 3 -25 15 -43 l22 -32 -31 35 c-17 19 -31
30 -31 25 0 -6 5 -16 12 -23 9 -9 9 -12 0 -12 -7 0 -24 24 -38 54 -20 42 -30
53 -49 54 l-23 0 24 -46 c28 -53 27 -49 10 -49 -8 0 -14 3 -13 6 4 11 -36 91
-45 91 -12 0 -10 -5 12 -45 11 -20 16 -34 11 -30 -6 3 -18 21 -26 39 -15 32
-19 34 -66 33 -48 0 -49 -1 -34 -21 8 -12 18 -28 22 -36 4 -8 13 -21 20 -28 7
-7 13 -21 12 -30 0 -14 -2 -13 -9 3 -12 27 -50 72 -50 60 0 -5 9 -23 20 -40
11 -16 20 -34 20 -40 0 -5 -9 3 -19 18 -10 16 -22 29 -27 29 -12 0 -34 19 -34
29 0 17 20 9 21 -8 0 -14 3 -12 10 5 6 16 5 31 -3 45 -11 21 -11 21 -18 3 -6
-17 -7 -17 -13 -3 -4 10 -17 15 -36 15 -36 -1 -37 -5 -10 -38 l21 -25 -6 28
c-4 15 -2 27 4 27 5 0 10 -7 10 -15 0 -9 7 -30 16 -46 8 -17 13 -33 10 -36 -3
-3 -10 7 -16 22 -6 15 -13 26 -16 23 -7 -8 12 -50 33 -73 45 -51 54 -67 18
-33 -22 21 -51 59 -64 85 -14 26 -31 56 -39 66 -17 20 -67 24 -56 5 6 -10 4
-10 -7 0 -24 22 -29 13 -12 -23 19 -39 38 -47 28 -12 -4 16 -1 14 12 -8 14
-24 18 -27 21 -12 2 10 -2 25 -9 33 -6 8 -10 17 -7 19 3 3 11 -7 19 -23 8 -15
20 -31 26 -35 7 -4 13 -13 13 -19 0 -9 -3 -9 -12 0 -7 7 -16 12 -22 12 -6 0
-5 -5 2 -12 7 -7 12 -18 12 -26 0 -8 9 -25 20 -39 11 -14 20 -30 20 -36 0 -6
-11 4 -25 23 -14 19 -25 39 -25 46 0 13 -39 64 -40 51 0 -4 9 -27 20 -50 l21
-42 -21 24 c-11 13 -20 29 -20 36 0 7 -7 15 -15 19 -8 3 -15 1 -15 -4 0 -6 5
-10 10 -10 6 0 10 -5 10 -11 0 -8 -5 -7 -15 1 -24 20 -28 5 -10 -30 9 -18 14
-34 11 -37 -3 -3 -11 7 -17 23 -7 16 -25 43 -40 59 -15 17 -30 41 -34 55 -7
24 -7 24 9 5 8 -11 16 -24 16 -28 0 -14 30 -40 37 -33 4 3 1 12 -5 18 -7 7
-12 16 -12 22 0 5 6 1 14 -10 24 -32 28 -9 5 30 -20 35 -39 47 -39 26 0 -5 5
-10 10 -10 6 0 10 -6 10 -12 -1 -7 -8 -4 -18 8 -16 19 -29 21 -125 21 -104 1
-107 0 -101 -19 4 -14 2 -18 -5 -14 -6 4 -11 14 -11 22 0 8 -4 14 -10 14 -5 0
-10 -5 -10 -12 0 -9 -3 -9 -12 0 -7 7 -36 12 -65 12 -52 0 -53 -1 -43 -22 l11
-23 -17 23 c-17 22 -54 31 -54 11 0 -6 5 -19 10 -30 7 -11 7 -19 1 -19 -5 0
-12 14 -16 30 -4 17 -13 30 -21 30 -12 0 -12 -5 2 -32 9 -18 24 -42 33 -52 15
-18 15 -18 -6 -7 -12 6 -25 21 -29 33 -10 35 -35 58 -60 58 -18 0 -22 -4 -17
-17 5 -15 3 -14 -10 2 -8 11 -19 17 -23 13 -4 -4 -1 -14 5 -22 10 -11 10 -19
1 -33 -10 -16 -10 -16 -5 3 8 30 -22 52 -72 51 l-42 0 20 -39 c11 -21 17 -38
14 -38 -2 0 -13 17 -24 39 -20 38 -20 38 -81 38 -33 0 -60 -4 -60 -7 0 -10 35
-40 45 -40 5 0 4 5 -3 12 -18 18 -15 33 3 18 9 -7 14 -18 12 -24 -3 -6 7 -26
20 -44 14 -18 23 -36 20 -38 -3 -3 -17 12 -31 33 -14 20 -26 33 -26 28 0 -5
-11 2 -25 17 -14 15 -25 32 -25 38 0 5 -4 10 -10 10 -5 0 -7 -8 -3 -17 5 -15
3 -14 -10 2 -8 11 -18 17 -22 13 -4 -3 9 -30 29 -60 20 -29 36 -49 36 -43 0 5
6 3 12 -3 7 -7 13 -20 13 -29 0 -9 5 -18 11 -20 25 -8 5 40 -29 71 -20 19 -37
37 -37 42 0 8 52 -37 77 -66 7 -8 12 -25 10 -37 -1 -11 7 -30 17 -42 11 -12
15 -21 10 -21 -14 0 -134 129 -134 144 -1 20 -37 59 -58 63 -16 2 -20 -1 -16
-15 5 -16 5 -16 -5 0 -12 18 -71 22 -71 5 0 -5 -6 -5 -13 2 -10 8 -407 11
-1425 11 l-1411 0 -63 -24 c-35 -14 -110 -41 -168 -61 -94 -33 -276 -103 -545
-209 -49 -19 -162 -65 -250 -102 -88 -36 -191 -79 -230 -94 -38 -16 -162 -67
-275 -115 -233 -99 -370 -156 -450 -187 -30 -11 -93 -40 -140 -64 -98 -50
-162 -74 -196 -74 -15 0 -43 17 -71 43 -44 40 -227 306 -322 467 -25 41 -65
107 -90 145 -25 39 -68 117 -96 173 l-50 101 -907 1 -908 0 0 -680z m7668 650
c7 -11 11 -20 9 -20 -2 0 -12 9 -22 20 -10 11 -14 20 -9 20 5 0 15 -9 22 -20z
m213 3 c13 -16 12 -17 -3 -4 -10 7 -18 15 -18 17 0 8 8 3 21 -13z m43 -25 c9
-17 14 -33 12 -36 -3 -2 -14 15 -24 37 -11 23 -16 39 -12 36 5 -3 16 -20 24
-37z m61 12 c9 -16 12 -30 7 -30 -8 0 -32 42 -32 55 0 13 11 2 25 -25z m35 -7
c0 -8 7 -28 16 -46 l15 -32 -20 25 c-11 14 -21 35 -21 48 0 12 -4 22 -10 22
-5 0 -10 5 -10 11 0 8 5 8 15 -1 8 -7 15 -19 15 -27z m135 -34 c6 -9 18 -28
29 -43 10 -15 16 -29 13 -32 -2 -3 -15 11 -27 31 -27 43 -38 40 -15 -5 9 -18
15 -34 12 -36 -5 -5 -50 86 -53 106 -1 8 -5 24 -10 35 -7 19 29 -21 51 -56z
m183 -29 c9 -19 23 -43 31 -52 9 -12 10 -18 3 -18 -7 0 -23 21 -36 48 -17 32
-25 40 -26 27 -1 -15 -6 -10 -21 18 -11 22 -18 41 -15 44 3 3 10 -6 15 -21 6
-14 13 -26 17 -26 6 0 2 20 -11 67 -5 17 8 -9 43 -87z m2 65 c0 -5 -5 -3 -10
5 -5 8 -10 20 -10 25 0 6 5 3 10 -5 5 -8 10 -19 10 -25z m98 22 c15 4 15 3 2
-6 -13 -10 -13 -12 0 -21 9 -6 11 -10 3 -10 -12 0 -34 31 -32 47 0 4 3 3 5 -4
3 -7 13 -9 22 -6z m102 -12 c19 -36 8 -40 -12 -4 -9 16 -14 29 -9 29 4 0 14
-11 21 -25z m25 15 c3 -5 1 -10 -4 -10 -6 0 -11 5 -11 10 0 6 2 10 4 10 3 0 8
-4 11 -10z m382 -50 c17 -28 27 -50 22 -50 -5 0 -15 11 -21 25 -6 14 -17 25
-25 25 -7 0 -13 9 -13 20 0 11 -4 20 -10 20 -5 0 -10 4 -10 10 0 20 26 -3 57
-50z m-2 50 c3 -5 1 -10 -4 -10 -6 0 -11 5 -11 10 0 6 2 10 4 10 3 0 8 -4 11
-10z m141 -107 c-6 -6 -41 62 -50 97 -4 14 7 -1 24 -34 17 -32 29 -60 26 -63z
m24 102 c7 -9 8 -15 2 -15 -5 0 -12 7 -16 15 -3 8 -4 15 -2 15 2 0 9 -7 16
-15z m161 6 c6 10 9 10 9 2 0 -7 5 -13 11 -13 5 0 7 5 4 10 -12 19 9 10 39
-17 l30 -28 -18 30 -18 30 23 -22 c18 -18 21 -25 11 -35 -9 -9 -17 -7 -34 9
-32 28 -53 20 -31 -13 8 -14 14 -26 12 -29 -3 -2 -13 9 -24 26 -11 16 -28 32
-37 35 -10 3 -18 10 -18 16 0 6 6 5 16 -3 13 -10 17 -10 25 2z m-1582 -42 c6
10 15 4 35 -21 30 -40 36 -62 6 -27 -14 17 -19 20 -20 9 0 -13 -1 -13 -10 0
-5 8 -12 11 -16 7 -4 -3 -2 -13 5 -20 6 -8 9 -22 5 -31 -5 -12 -2 -15 12 -10
15 5 16 4 4 -4 -10 -8 -18 -8 -28 0 -10 8 -10 13 -1 18 6 4 8 13 4 19 -5 9
-11 9 -23 -1 -14 -12 -14 -10 -3 10 14 26 8 52 -11 52 -9 0 -9 -3 0 -12 16
-16 15 -25 -4 -32 -10 -4 -13 -2 -8 6 4 6 -5 21 -20 33 -18 15 -24 25 -17 29
6 4 14 0 17 -8 3 -9 10 -16 15 -16 6 0 4 10 -2 23 -10 18 -6 17 20 -8 25 -23
34 -27 40 -16z m56 -7 c-5 -5 -45 36 -45 46 0 3 11 -5 25 -18 14 -13 23 -26
20 -28z m759 32 c3 -8 2 -12 -4 -9 -6 3 -10 10 -10 16 0 14 7 11 14 -7z m-407
-19 c9 -25 -4 -29 -17 -6 -7 15 -7 21 0 21 6 0 13 -7 17 -15z m171 -23 c25
-49 25 -57 4 -33 -12 13 -22 30 -22 38 0 7 -7 13 -15 13 -8 0 -15 4 -15 9 0
19 36 -1 48 -27z m103 11 c-12 -20 -14 -14 -5 12 4 9 9 14 11 11 3 -2 0 -13
-6 -23z m647 -50 c13 -11 19 -24 14 -27 -10 -6 -65 58 -75 89 -5 13 1 9 15
-10 13 -16 33 -40 46 -52z m323 40 c18 -21 24 -29 12 -19 -27 23 -30 11 -5
-18 16 -20 16 -20 -1 -7 -23 18 -57 81 -44 81 2 0 19 -17 38 -37z m160 -11 c6
-20 16 -43 22 -50 5 -7 7 -15 4 -19 -6 -5 -57 97 -57 113 0 17 20 -12 31 -44z
m85 -27 l14 -30 -17 25 c-10 13 -26 31 -35 39 -10 9 -18 22 -18 31 0 18 33
-20 56 -65z m-1681 39 c24 -37 11 -41 -15 -5 -12 17 -17 31 -12 31 5 0 17 -12
27 -26z m505 16 c0 -5 -2 -10 -4 -10 -3 0 -8 5 -11 10 -3 6 -1 10 4 10 6 0 11
-4 11 -10z m181 -17 c6 -16 7 -35 1 -47 -8 -18 -10 -17 -31 12 -12 18 -18 32
-12 32 6 0 16 -10 22 -22 7 -13 14 -18 16 -11 2 6 -3 23 -13 37 -10 16 -12 26
-5 26 6 0 16 -12 22 -27z m-518 -23 c-3 -10 1 -21 8 -26 9 -5 10 -2 6 10 -4
11 -3 15 4 11 6 -4 8 -13 5 -21 -7 -18 20 -83 47 -113 15 -16 17 -22 7 -19
-21 6 -88 137 -87 171 0 16 3 23 7 16 4 -6 5 -19 3 -29z m277 30 c0 -5 -2 -10
-4 -10 -3 0 -8 5 -11 10 -3 6 -1 10 4 10 6 0 11 -4 11 -10z m150 -20 c0 -15
-5 -12 -26 11 -19 22 -19 22 4 10 12 -6 22 -16 22 -21z m-23 -13 c4 -6 8 -25
9 -41 2 -24 0 -26 -8 -13 -5 10 -6 22 -3 27 3 6 -6 21 -22 36 -22 20 -24 23
-6 15 12 -6 25 -17 30 -24z m-716 6 c13 -16 12 -17 -3 -4 -10 7 -18 15 -18 17
0 8 8 3 21 -13z m249 -5 c11 -12 20 -26 20 -31 0 -6 -11 2 -25 17 -14 15 -25
29 -25 32 0 9 10 3 30 -18z m233 -8 c3 -11 2 -18 -3 -15 -4 3 -10 14 -13 25
-3 11 -2 18 3 15 4 -3 10 -14 13 -25z m158 13 c13 -16 12 -17 -3 -4 -10 7 -18
15 -18 17 0 8 8 3 21 -13z m-419 -18 c6 -13 20 -27 30 -31 11 -3 17 -8 15 -11
-9 -8 -44 15 -61 42 -9 14 -12 25 -6 25 6 0 16 -11 22 -25z m393 15 c3 -6 -1
-7 -9 -4 -18 7 -21 14 -7 14 6 0 13 -4 16 -10z m165 -11 c0 -13 26 -39 38 -39
6 0 13 -7 16 -16 4 -11 -3 -9 -27 7 -17 13 -35 28 -39 34 -11 15 -10 37 2 30
6 -3 10 -11 10 -16z m636 6 c3 -8 28 -31 55 -51 57 -42 84 -83 65 -100 -9 -9
-21 -5 -47 15 -52 40 -126 115 -100 102 12 -7 44 -35 70 -62 49 -50 71 -61 71
-33 0 8 -4 13 -10 9 -5 -3 -24 9 -42 26 l-33 31 34 -26 c18 -15 36 -24 39 -21
4 3 -9 18 -28 33 -61 47 -105 91 -92 92 7 0 15 -7 18 -15z m-726 -23 c0 -10 7
-29 16 -42 l17 -25 -20 20 c-22 21 -42 82 -23 70 5 -3 10 -14 10 -23z m442
-22 c4 0 8 -5 8 -11 0 -8 -5 -8 -15 1 -8 7 -15 19 -15 26 0 8 -5 14 -11 14 -6
0 -7 5 -2 13 5 8 10 3 17 -15 5 -16 13 -28 18 -28z m-672 25 c7 -9 8 -15 2
-15 -5 0 -12 7 -16 15 -3 8 -4 15 -2 15 2 0 9 -7 16 -15z m418 -6 c19 -30 8
-34 -12 -4 -9 14 -13 25 -9 25 5 0 14 -9 21 -21z m182 -43 c0 -5 11 -24 26
-43 14 -18 20 -33 13 -33 -6 0 -8 -7 -4 -17 4 -13 -2 -10 -22 8 -15 15 -35 29
-43 32 -13 5 -12 6 1 6 9 1 22 -6 29 -14 29 -35 27 -10 -5 51 -19 37 -35 70
-35 73 0 10 40 -53 40 -63z m244 48 c3 -8 2 -12 -4 -9 -6 3 -10 10 -10 16 0
14 7 11 14 -7z m516 -28 c0 -5 -7 -1 -15 10 -8 10 -14 24 -14 29 0 6 6 1 14
-9 8 -11 15 -24 15 -30z m-1760 -32 c0 -9 5 -25 11 -36 9 -16 13 -18 19 -7 5
8 2 18 -8 27 -22 18 -5 11 35 -13 41 -25 41 -32 3 -30 -34 2 -36 -2 -15 -29
17 -22 19 -36 6 -36 -5 0 -12 8 -15 18 -11 31 -33 62 -39 56 -3 -3 -11 -3 -17
1 -9 6 -9 9 0 15 6 4 10 18 7 31 l-4 24 -8 -22 c-4 -13 -11 -20 -16 -17 -5 3
-7 10 -3 15 3 6 -2 17 -12 24 -11 8 -14 15 -7 15 6 0 15 -4 18 -10 3 -5 11
-10 17 -10 6 0 4 8 -5 18 -10 10 -17 23 -17 28 1 15 50 -46 50 -62z m103 51
c-3 -9 -8 -14 -10 -11 -3 3 -2 9 2 15 9 16 15 13 8 -4z m85 -47 c2 -4 12 1 22
9 10 9 17 20 14 25 -3 4 -1 8 5 8 6 0 15 -9 21 -19 15 -29 12 -37 -6 -15 -13
15 -15 16 -10 2 4 -13 1 -15 -12 -11 -15 6 -14 3 2 -15 11 -12 17 -25 13 -28
-3 -3 -11 4 -17 16 -6 12 -14 20 -16 17 -7 -6 18 -57 25 -53 3 2 7 -7 7 -20 1
-13 0 -24 -2 -24 -2 0 -15 24 -28 54 -14 30 -34 60 -45 66 -11 6 -26 20 -32
33 -10 18 -6 17 22 -8 19 -16 35 -33 37 -37z m123 45 c13 -16 12 -17 -3 -4
-10 7 -18 15 -18 17 0 8 8 3 21 -13z m263 2 c3 -8 1 -15 -4 -15 -6 0 -10 7
-10 15 0 8 2 15 4 15 2 0 6 -7 10 -15z m31 5 c3 -5 1 -10 -4 -10 -6 0 -11 5
-11 10 0 6 2 10 4 10 3 0 8 -4 11 -10z m95 -15 c14 -19 14 -19 -2 -6 -10 7
-18 18 -18 24 0 6 1 8 3 6 1 -2 9 -13 17 -24z m194 0 c3 -8 1 -15 -3 -15 -5 0
-11 7 -15 15 -3 8 -1 15 3 15 5 0 11 -7 15 -15z m297 -21 c9 -11 2 -9 -18 6
-18 13 -33 25 -33 27 0 8 38 -17 51 -33z m119 11 c14 -19 14 -19 -2 -6 -10 7
-18 18 -18 24 0 6 1 8 3 6 1 -2 9 -13 17 -24z m256 9 c-4 -9 -1 -24 6 -33 11
-15 10 -15 -5 0 -16 13 -15 49 0 49 3 0 2 -7 -1 -16z m-1489 -8 c-3 -7 0 -20
6 -27 10 -11 9 -11 -5 0 -15 11 -15 41 -1 41 3 0 3 -6 0 -14z m363 4 c0 -5 -2
-10 -4 -10 -3 0 -8 5 -11 10 -3 6 -1 10 4 10 6 0 11 -4 11 -10z m44 -6 c5 -14
4 -15 -9 -4 -17 14 -19 20 -6 20 5 0 12 -7 15 -16z m322 -6 c3 -13 19 -42 35
-66 16 -24 29 -48 29 -55 0 -7 -6 -3 -12 8 -6 11 -14 22 -17 25 -14 11 -59
110 -51 110 5 0 12 -10 16 -22z m-637 -35 c2 -2 2 -5 -1 -8 -2 -3 -18 10 -34
28 l-29 32 30 -25 c17 -14 32 -26 34 -27z m935 31 c3 -8 2 -12 -4 -9 -6 3 -10
10 -10 16 0 14 7 11 14 -7z m186 1 c7 -8 8 -15 2 -15 -5 0 -15 7 -22 15 -7 8
-8 15 -2 15 5 0 15 -7 22 -15z m354 -24 c-5 -6 -34 20 -34 30 0 5 8 1 18 -8
10 -10 17 -20 16 -22z m175 -12 c14 -41 7 -36 -17 11 -11 23 -14 36 -7 30 8
-6 18 -24 24 -41z m-1885 9 c-4 -6 -10 -5 -15 3 -14 22 -10 33 6 19 8 -7 12
-17 9 -22z m822 0 c3 -11 3 -22 0 -25 -3 -4 -6 0 -6 7 0 7 -8 22 -17 32 -15
17 -15 18 0 13 9 -4 19 -16 23 -27z m-426 12 c0 -5 -2 -10 -4 -10 -3 0 -8 5
-11 10 -3 6 -1 10 4 10 6 0 11 -4 11 -10z m68 -11 c19 -30 11 -32 -11 -3 -10
13 -14 24 -10 24 5 0 14 -9 21 -21z m317 1 c10 -11 16 -20 13 -20 -3 0 -13 9
-23 20 -10 11 -16 20 -13 20 3 0 13 -9 23 -20z m125 10 c0 -5 -2 -10 -4 -10
-3 0 -8 5 -11 10 -3 6 -1 10 4 10 6 0 11 -4 11 -10z m84 -30 c-6 -5 -24 21
-24 34 0 6 6 1 14 -10 8 -10 12 -21 10 -24z m24 20 c7 -11 11 -20 9 -20 -2 0
-12 9 -22 20 -10 11 -14 20 -9 20 5 0 15 -9 22 -20z m418 -22 c8 -16 14 -32
12 -34 -3 -2 -14 14 -26 37 -12 22 -17 37 -12 34 6 -4 17 -20 26 -37z m424 10
c0 -5 12 -25 26 -44 15 -19 24 -37 22 -40 -5 -4 -32 35 -65 95 -12 21 -11 22
2 11 8 -7 15 -17 15 -22z m-1660 0 c0 -6 -6 -5 -15 2 -8 7 -15 14 -15 16 0 2
7 1 15 -2 8 -4 15 -11 15 -16z m250 -14 c0 -3 -7 -1 -15 6 -8 7 -15 17 -15 22
0 5 7 3 15 -6 8 -8 15 -18 15 -22z m355 -14 c8 0 15 -5 15 -10 0 -7 -8 -7 -22
1 -29 15 -58 40 -58 50 0 4 11 -3 25 -16 13 -14 31 -25 40 -25z m381 24 c-6
17 -5 17 11 5 15 -12 16 -12 10 5 -7 16 -5 17 8 6 15 -12 14 -15 -7 -26 -19
-10 -26 -10 -40 3 -10 9 -18 21 -18 27 0 6 10 0 21 -14 16 -19 19 -20 15 -6z
m584 -18 c0 -12 -5 -7 -19 24 -11 24 -11 24 3 6 9 -11 16 -24 16 -30z m-1080
9 c14 -19 14 -19 -2 -6 -10 7 -18 18 -18 24 0 6 1 8 3 6 1 -2 9 -13 17 -24z
m428 0 c-3 -3 -9 2 -12 12 -6 14 -5 15 5 6 7 -7 10 -15 7 -18z m172 -7 c0 -5
-7 -3 -15 6 -8 8 -15 18 -15 22 0 3 7 1 15 -6 8 -7 15 -17 15 -22z m58 2 c7 0
12 -5 12 -11 0 -5 -13 -2 -30 8 -16 9 -30 22 -30 27 0 5 8 2 18 -7 10 -10 24
-17 30 -17z m582 20 c0 -5 -2 -10 -4 -10 -3 0 -8 5 -11 10 -3 6 -1 10 4 10 6
0 11 -4 11 -10z m-1700 -64 c0 -6 -5 -3 -11 7 -5 9 -15 17 -21 17 -6 0 -3 -11
6 -25 24 -37 19 -43 -10 -11 -21 22 -24 30 -13 37 11 6 10 9 -4 15 -9 3 -17
10 -17 16 0 5 16 -3 35 -18 19 -14 35 -31 35 -38z m120 45 c7 -15 7 -19 -5
-17 -20 3 -28 13 -20 25 9 15 13 14 25 -8z m60 -3 c0 -6 -6 -5 -15 2 -8 7 -15
14 -15 16 0 2 7 1 15 -2 8 -4 15 -11 15 -16z m1222 -38 c5 0 8 -5 8 -10 0 -6
-18 4 -40 21 -22 18 -40 36 -40 40 0 4 15 -5 32 -22 18 -16 36 -29 40 -29z
m109 43 c13 -16 12 -17 -3 -4 -10 7 -18 15 -18 17 0 8 8 3 21 -13z m94 7 c3
-5 1 -10 -4 -10 -6 0 -11 5 -11 10 0 6 2 10 4 10 3 0 8 -4 11 -10z m-637 -35
c4 6 14 11 22 13 11 3 9 -2 -5 -16 -20 -19 -20 -19 -47 2 -15 12 -27 25 -27
30 -1 5 10 -1 25 -14 14 -14 28 -20 32 -15z m207 15 c10 -11 16 -20 13 -20 -3
0 -13 9 -23 20 -10 11 -16 20 -13 20 3 0 13 -9 23 -20z m-1372 -5 c4 -8 3 -16
-1 -19 -4 -3 -9 4 -9 15 -2 23 3 25 10 4z m402 5 c3 -5 1 -10 -4 -10 -6 0 -11
5 -11 10 0 6 2 10 4 10 3 0 8 -4 11 -10z m140 -10 c18 -20 18 -21 0 -14 -13 5
-16 4 -11 -4 4 -7 3 -12 -3 -12 -5 0 -13 5 -16 10 -3 6 -2 10 4 10 6 0 8 7 5
15 -8 21 -1 19 21 -5z m40 10 c4 -6 11 -8 16 -5 5 4 9 1 9 -4 0 -15 -11 -13
-34 4 -11 8 -15 15 -9 15 7 0 15 -5 18 -10z m343 -11 c19 -30 11 -32 -11 -3
-10 13 -14 24 -10 24 5 0 14 -9 21 -21z m322 -15 c0 -3 -7 -1 -15 6 -8 7 -15
17 -15 22 0 5 7 3 15 -6 8 -8 15 -18 15 -22z m361 19 c13 -16 12 -17 -3 -4
-10 7 -18 15 -18 17 0 8 8 3 21 -13z m-1381 -3 c0 -5 -2 -10 -4 -10 -3 0 -8 5
-11 10 -3 6 -1 10 4 10 6 0 11 -4 11 -10z m215 0 c3 -6 -1 -7 -9 -4 -18 7 -21
14 -7 14 6 0 13 -4 16 -10z m231 -17 c-6 -6 -36 9 -36 18 0 5 9 4 20 -3 10 -7
18 -14 16 -15z m314 17 c0 -5 -2 -10 -4 -10 -3 0 -8 5 -11 10 -3 6 -1 10 4 10
6 0 11 -4 11 -10z m300 0 c0 -5 -2 -10 -4 -10 -3 0 -8 5 -11 10 -3 6 -1 10 4
10 6 0 11 -4 11 -10z m390 0 c0 -5 -2 -10 -4 -10 -3 0 -8 5 -11 10 -3 6 -1 10
4 10 6 0 11 -4 11 -10z m-924 -37 c4 4 1 15 -7 24 -12 17 -12 17 6 1 15 -14
17 -20 7 -30 -10 -10 -18 -6 -40 17 l-27 29 27 -23 c16 -14 31 -22 34 -18z
m105 20 c13 -16 12 -17 -3 -4 -10 7 -18 15 -18 17 0 8 8 3 21 -13z m278 -24
c-6 -4 -8 -12 -4 -19 5 -8 1 -7 -14 2 -11 7 -23 19 -26 27 -5 11 -3 12 10 1 9
-7 19 -9 23 -5 4 4 1 10 -5 12 -7 3 -13 9 -13 15 0 6 9 3 20 -7 14 -13 17 -21
9 -26z m331 16 c13 -14 21 -25 18 -25 -2 0 -15 11 -28 25 -13 14 -21 25 -18
25 2 0 15 -11 28 -25z m428 0 c-3 -3 -9 2 -12 12 -6 14 -5 15 5 6 7 -7 10 -15
7 -18z m52 -30 c0 -11 -14 7 -31 40 -7 13 -3 12 10 -5 11 -14 21 -29 21 -35z
m-1893 -7 c-8 -5 -6 -8 6 -8 10 0 16 -4 12 -9 -3 -5 -1 -12 5 -16 5 -3 10 -12
10 -18 0 -7 -10 0 -21 16 -11 15 -25 27 -30 27 -5 0 0 -13 12 -30 13 -16 20
-32 17 -35 -3 -3 -17 13 -32 36 -21 31 -25 44 -16 53 8 8 10 7 4 -7 -5 -13 -2
-16 10 -11 12 4 13 10 6 24 -16 30 -11 34 9 9 14 -17 16 -26 8 -31z m300 30
c23 -21 23 -21 39 -2 14 17 15 17 10 1 -7 -21 7 -38 51 -60 29 -15 49 -44 38
-55 -2 -3 -7 3 -11 12 -7 19 -94 80 -102 72 -5 -6 16 -25 63 -59 14 -10 25
-22 25 -27 0 -6 -8 -3 -17 5 -10 9 -33 27 -50 41 -18 14 -33 31 -33 37 -1 15
-50 52 -50 37 0 -6 -4 -8 -10 -5 -5 3 -10 1 -10 -6 0 -7 -3 -9 -7 -5 -7 7 23
36 36 36 2 0 15 -10 28 -22z m610 8 c-3 -7 4 -21 15 -31 17 -14 22 -15 30 -4
7 10 8 9 4 -5 -4 -10 -1 -26 6 -35 7 -9 -6 0 -27 19 -22 19 -41 35 -43 36 -4
2 10 34 15 34 3 0 3 -6 0 -14z m73 -6 c13 -11 19 -20 13 -20 -5 0 -18 9 -28
20 -10 11 -16 20 -13 20 3 0 15 -9 28 -20z m168 6 c-7 -8 -15 -12 -17 -11 -5
6 10 25 20 25 5 0 4 -6 -3 -14z m126 -2 c5 -14 4 -15 -9 -4 -17 14 -19 20 -6
20 5 0 12 -7 15 -16z m516 -28 c0 -12 -5 -7 -19 24 -11 24 -11 24 3 6 9 -11
16 -24 16 -30z m-1595 4 c9 -18 21 -27 29 -24 8 3 17 0 22 -7 5 -8 3 -10 -6
-4 -7 4 -15 3 -19 -4 -5 -7 -16 5 -30 29 -12 22 -20 40 -17 40 3 0 12 -13 21
-30z m1023 5 c-3 -3 -9 2 -12 12 -6 14 -5 15 5 6 7 -7 10 -15 7 -18z m32 0
c14 -19 14 -19 -2 -6 -10 7 -18 18 -18 24 0 6 1 8 3 6 1 -2 9 -13 17 -24z
m467 3 c-3 -8 -6 -5 -6 6 -1 11 2 17 5 13 3 -3 4 -12 1 -19z m-1617 -20 c24
-39 26 -55 5 -38 -8 7 -15 19 -15 27 0 8 -5 11 -10 8 -7 -4 -5 -14 5 -28 19
-27 20 -46 1 -27 -20 21 -30 60 -16 60 7 0 10 7 6 15 -10 26 3 16 24 -17z
m345 2 c11 -17 -5 -11 -28 11 l-22 21 22 -11 c12 -6 25 -16 28 -21z m97 -6
c-9 -16 -10 -14 -9 8 1 15 6 23 11 18 4 -4 4 -16 -2 -26z m68 12 c14 -17 13
-18 -8 -12 -24 8 -29 -2 -9 -24 6 -8 2 -6 -10 4 -20 16 -20 19 -5 35 9 10 17
17 17 17 1 -1 7 -10 15 -20z m584 -2 c6 -10 12 -21 14 -24 2 -2 8 2 13 10 9
13 10 13 7 1 -7 -25 -27 -24 -37 2 -5 14 -15 27 -21 30 -6 3 -6 5 2 3 6 -1 16
-11 22 -22z m225 -27 c-2 -3 -15 10 -28 27 l-24 31 28 -27 c16 -15 27 -29 24
-31z m336 43 c3 -5 1 -10 -4 -10 -6 0 -11 5 -11 10 0 6 2 10 4 10 3 0 8 -4 11
-10z m-1327 -38 c17 -13 32 -29 32 -35 0 -6 -15 3 -33 21 -18 18 -38 32 -44
32 -7 0 -15 4 -18 10 -9 15 26 -1 63 -28z m251 13 c33 -36 22 -38 -14 -4 -16
16 -25 29 -20 29 6 0 21 -12 34 -25z m1181 15 c0 -5 -2 -10 -4 -10 -3 0 -8 5
-11 10 -3 6 -1 10 4 10 6 0 11 -4 11 -10z m-1569 -18 c-8 -3 -4 -14 15 -33 39
-41 21 -36 -23 7 -22 20 -30 32 -19 28 13 -5 17 -4 12 4 -5 8 -1 10 10 5 12
-5 14 -8 5 -11z m227 -19 c7 -7 9 -13 4 -13 -11 0 -52 35 -52 45 0 7 21 -7 48
-32z m312 21 c0 -8 -4 -12 -10 -9 -5 3 -10 10 -10 16 0 5 5 9 10 9 6 0 10 -7
10 -16z m54 -14 c-6 -6 -10 -3 -10 10 0 13 4 16 10 10 7 -7 7 -13 0 -20z m160
-2 c-4 -6 -10 -5 -15 3 -14 22 -10 33 6 19 8 -7 12 -17 9 -22z m-314 12 c0 -5
-2 -10 -4 -10 -3 0 -8 5 -11 10 -3 6 -1 10 4 10 6 0 11 -4 11 -10z m70 -15 c5
3 11 1 14 -4 4 -5 0 -8 -6 -7 -21 3 -38 16 -38 29 0 7 5 4 11 -6 6 -9 14 -15
19 -12z m177 3 c-3 -8 -6 -5 -6 6 -1 11 2 17 5 13 3 -3 4 -12 1 -19z m331 -14
c-4 -3 -12 5 -18 18 -12 22 -12 22 6 6 10 -10 15 -20 12 -24z m30 11 c-3 -3
-9 2 -12 12 -6 14 -5 15 5 6 7 -7 10 -15 7 -18z m163 8 c13 -16 12 -17 -3 -4
-10 7 -18 15 -18 17 0 8 8 3 21 -13z m243 2 c3 -8 1 -15 -4 -15 -6 0 -10 7
-10 15 0 8 2 15 4 15 2 0 6 -7 10 -15z m106 -23 c0 -13 -3 -12 -15 4 -19 25
-19 40 0 24 8 -7 15 -20 15 -28z m-1706 12 c5 -14 4 -15 -9 -4 -17 14 -19 20
-6 20 5 0 12 -7 15 -16z m62 -28 c7 -17 13 -25 14 -18 0 8 5 10 12 6 8 -5 9
-2 4 11 -5 15 -4 16 9 5 11 -9 12 -15 5 -20 -7 -4 6 -22 32 -45 31 -27 37 -36
21 -31 -14 5 -23 3 -23 -3 0 -15 -27 -2 -34 16 -5 13 -4 14 9 3 9 -7 18 -10
22 -6 10 9 -39 57 -53 52 -7 -3 -18 2 -24 10 -7 8 -9 14 -6 14 4 0 4 5 0 11
-5 8 -9 8 -14 -1 -5 -9 -9 -9 -14 -1 -4 6 -2 11 4 11 7 0 9 7 6 16 -11 29 16
2 30 -30z m809 34 c3 -5 1 -10 -4 -10 -6 0 -11 5 -11 10 0 6 2 10 4 10 3 0 8
-4 11 -10z m576 -7 c13 -16 12 -17 -3 -4 -10 7 -18 15 -18 17 0 8 8 3 21 -13z
m-1519 -48 c14 -30 22 -52 17 -49 -14 8 -61 104 -51 104 5 0 20 -25 34 -55z
m409 38 c13 -16 12 -17 -3 -4 -10 7 -18 15 -18 17 0 8 8 3 21 -13z m203 -9 c3
-9 10 -13 15 -10 5 3 15 -2 22 -12 12 -15 12 -16 -2 -5 -9 7 -18 10 -22 7 -5
-5 -47 31 -47 41 0 10 29 -8 34 -21z m86 4 c0 -6 -6 -5 -15 2 -8 7 -15 14 -15
16 0 2 7 1 15 -2 8 -4 15 -11 15 -16z m161 0 c10 -13 18 -27 19 -33 0 -5 -5
-3 -10 5 -8 12 -12 12 -18 2 -12 -18 -35 10 -26 32 8 21 12 20 35 -6z m160 5
c13 -17 13 -17 -6 -3 -11 8 -22 16 -24 17 -2 2 0 3 6 3 6 0 17 -8 24 -17z
m199 -8 c13 -14 19 -25 13 -25 -6 0 -18 11 -27 25 -9 14 -15 25 -13 25 2 0 14
-11 27 -25z m530 5 c6 -11 9 -20 7 -20 -2 0 -12 9 -22 20 -10 11 -13 20 -7 20
6 0 16 -9 22 -20z m-1250 0 c0 -5 -4 -10 -10 -10 -5 0 -10 5 -10 10 0 6 5 10
10 10 6 0 10 -4 10 -10z m295 0 c3 -6 -1 -7 -9 -4 -18 7 -21 14 -7 14 6 0 13
-4 16 -10z m610 -34 c15 -14 11 -13 -12 3 -18 12 -33 27 -33 34 0 6 5 5 13 -4
6 -8 21 -23 32 -33z m-825 17 c0 -3 -7 -3 -15 1 -8 3 -15 0 -15 -6 0 -6 -3 -9
-6 -5 -11 10 6 26 21 20 8 -3 15 -7 15 -10z m95 7 c3 -5 1 -10 -4 -10 -6 0
-11 5 -11 10 0 6 2 10 4 10 3 0 8 -4 11 -10z m281 -18 c-4 -3 -14 2 -24 12
-16 18 -16 18 6 6 13 -6 21 -14 18 -18z m34 18 c0 -5 -2 -10 -4 -10 -3 0 -8 5
-11 10 -3 6 -1 10 4 10 6 0 11 -4 11 -10z m140 -5 c7 -8 8 -15 2 -15 -5 0 -15
7 -22 15 -7 8 -8 15 -2 15 5 0 15 -7 22 -15z m-1050 -5 c0 -5 6 -10 13 -10 8
0 22 -9 32 -20 18 -20 18 -21 -1 -14 -18 7 -18 7 -1 -13 17 -19 17 -21 1 -27
-12 -5 -27 4 -50 29 -24 27 -28 34 -13 30 11 -4 19 -2 19 4 0 6 -4 11 -10 11
-5 0 -10 5 -10 10 0 6 5 10 10 10 6 0 10 -4 10 -10z m400 -5 c7 -9 8 -15 2
-15 -5 0 -12 7 -16 15 -3 8 -4 15 -2 15 2 0 9 -7 16 -15z m283 -35 c4 0 5 5 2
10 -12 19 12 10 31 -12 16 -19 16 -20 1 -9 -9 8 -21 10 -25 6 -4 -4 -1 -10 6
-12 6 -3 12 -10 12 -16 -1 -7 -16 6 -35 27 -19 22 -35 44 -35 50 0 6 8 -1 18
-16 9 -16 20 -28 25 -28z m295 38 c-3 -7 6 -24 19 -38 13 -14 23 -29 23 -33 0
-5 -12 5 -26 22 -14 17 -29 29 -34 26 -4 -3 -13 2 -19 9 -10 12 -8 13 10 9 15
-4 20 -3 15 5 -4 7 -2 12 4 12 7 0 10 -6 8 -12z m137 0 c44 -38 74 -68 67 -68
-10 1 -99 80 -89 80 4 0 14 -6 22 -12z m185 -23 c0 -2 -13 2 -29 8 -17 6 -28
14 -25 19 4 7 54 -18 54 -27z m-951 -9 c-3 -3 -11 5 -18 17 -13 21 -12 21 5 5
10 -10 16 -20 13 -22z m25 18 c3 -8 2 -12 -4 -9 -6 3 -10 10 -10 16 0 14 7 11
14 -7z m641 5 c11 -16 1 -19 -13 -3 -7 8 -8 14 -3 14 5 0 13 -5 16 -11z m236
-19 c5 0 9 -5 9 -10 0 -6 -11 -3 -25 6 -14 9 -25 21 -25 26 0 5 7 2 16 -6 8
-9 20 -16 25 -16z m536 10 c10 -15 10 -21 0 -26 -6 -4 -9 -3 -4 1 4 5 0 17
-10 27 -9 10 -12 18 -7 18 5 0 15 -9 21 -20z m-1871 -37 c17 -27 36 -63 43
-80 13 -32 31 -44 31 -21 0 6 3 9 6 5 3 -3 2 -13 -4 -23 -6 -12 -11 -13 -17
-5 -5 9 -10 9 -21 0 -9 -7 -14 -8 -14 -1 0 6 5 12 11 14 9 3 -4 37 -29 77 -1
3 -8 -1 -14 -7 -15 -15 -31 -16 -22 -1 3 6 0 15 -7 20 -7 4 -10 11 -6 15 4 4
14 -1 22 -12 11 -15 14 -16 15 -3 0 8 -7 24 -15 35 -8 10 -15 14 -15 8 0 -7
-7 -15 -16 -18 -10 -4 -13 -2 -7 7 6 10 26 36 29 37 1 0 14 -21 30 -47z m224
43 c0 -3 -4 -8 -10 -11 -5 -3 -10 -1 -10 4 0 6 5 11 10 11 6 0 10 -2 10 -4z
m314 -12 c3 -8 2 -12 -4 -9 -6 3 -10 10 -10 16 0 14 7 11 14 -7z m190 -9 c9
-14 13 -25 8 -25 -5 0 -14 11 -20 25 -6 14 -10 25 -8 25 2 0 11 -11 20 -25z
m105 -5 c11 -24 11 -24 -3 -6 -9 11 -16 24 -16 30 0 12 5 7 19 -24z m78 1 c-1
-16 -5 -17 -19 -10 -23 12 -24 20 -1 12 13 -5 15 -2 10 11 -4 9 -3 15 2 11 6
-3 9 -14 8 -24z m-633 4 c3 -8 1 -15 -4 -15 -6 0 -10 7 -10 15 0 8 2 15 4 15
2 0 6 -7 10 -15z m320 -1 c5 -14 4 -15 -9 -4 -17 14 -19 20 -6 20 5 0 12 -7
15 -16z m26 5 c0 -5 4 -8 9 -5 5 3 11 -3 14 -14 7 -25 5 -25 -23 5 -13 14 -18
25 -12 25 7 0 12 -5 12 -11z m74 -5 c5 -14 4 -15 -9 -4 -17 14 -19 20 -6 20 5
0 12 -7 15 -16z m310 7 c4 -5 -3 -7 -14 -4 -12 3 -20 0 -20 -8 0 -7 -3 -10 -6
-6 -9 9 5 27 21 27 8 0 16 -4 19 -9z m176 -1 c8 -5 11 -12 8 -16 -4 -3 -14 1
-23 10 -18 17 -9 21 15 6z m655 0 c3 -5 1 -10 -4 -10 -6 0 -11 5 -11 10 0 6 2
10 4 10 3 0 8 -4 11 -10z m-1515 -15 c19 -23 8 -25 -14 -4 -11 11 -15 19 -9
19 6 0 16 -7 23 -15z m190 -29 c0 -12 -5 -7 -19 24 -11 24 -11 24 3 6 9 -11
16 -24 16 -30z m650 12 c0 -12 -6 -9 -26 13 -19 22 -19 22 4 8 12 -8 22 -17
22 -21z m130 28 c0 -3 -4 -8 -10 -11 -5 -3 -10 -1 -10 4 0 6 5 11 10 11 6 0
10 -2 10 -4z m-1127 -21 c-3 -9 -8 -14 -10 -11 -3 3 -2 9 2 15 9 16 15 13 8
-4z m88 -2 c13 -16 12 -17 -3 -4 -10 7 -18 15 -18 17 0 8 8 3 21 -13z m427 -8
c-3 -3 -9 2 -12 12 -6 14 -5 15 5 6 7 -7 10 -15 7 -18z m792 15 c0 -5 -2 -10
-4 -10 -3 0 -8 5 -11 10 -3 6 -1 10 4 10 6 0 11 -4 11 -10z m100 0 c0 -5 -2
-10 -4 -10 -3 0 -8 5 -11 10 -3 6 -1 10 4 10 6 0 11 -4 11 -10z m-1500 -21 c0
-6 -4 -7 -10 -4 -5 3 -10 11 -10 16 0 6 5 7 10 4 6 -3 10 -11 10 -16z m336 -1
l19 -21 -27 18 c-29 18 -34 25 -20 25 5 0 17 -10 28 -22z m48 6 c3 -8 2 -12
-4 -9 -6 3 -10 10 -10 16 0 14 7 11 14 -7z m571 -9 l30 -25 -37 17 c-21 10
-38 21 -38 26 0 13 15 7 45 -18z m40 14 c11 -16 1 -19 -13 -3 -7 8 -8 14 -3
14 5 0 13 -5 16 -11z m-760 -17 c-3 -3 -11 0 -18 7 -9 10 -8 11 6 5 10 -3 15
-9 12 -12z m845 -18 c0 -3 -7 -1 -15 6 -8 7 -15 17 -15 22 0 5 7 3 15 -6 8 -8
15 -18 15 -22z m719 -4 l23 -35 -26 28 c-14 15 -26 33 -26 39 0 13 0 14 29
-32z m-1308 13 c13 -16 12 -17 -3 -4 -10 7 -18 15 -18 17 0 8 8 3 21 -13z
m159 7 c0 -5 -4 -10 -10 -10 -5 0 -10 5 -10 10 0 6 5 10 10 10 6 0 10 -4 10
-10z m97 -15 c-15 -16 -19 -13 -11 9 3 9 10 13 15 10 5 -3 3 -11 -4 -19z m43
10 c11 -13 10 -14 -4 -9 -9 3 -16 10 -16 15 0 13 6 11 20 -6z m115 5 c3 -6 -1
-7 -9 -4 -18 7 -21 14 -7 14 6 0 13 -4 16 -10z m490 -8 c-3 -3 -11 0 -18 7 -9
10 -8 11 6 5 10 -3 15 -9 12 -12z m-1411 -27 l6 -30 -14 25 c-8 14 -12 28 -9
33 7 11 9 7 17 -28z m876 25 c8 -5 11 -10 5 -10 -5 0 -17 5 -25 10 -8 5 -10
10 -5 10 6 0 17 -5 25 -10z m-850 -13 c0 -6 18 -32 40 -56 44 -48 49 -63 9
-28 -32 28 -74 97 -60 97 6 0 11 -6 11 -13z m90 3 c0 -5 7 -10 15 -10 8 0 15
-5 15 -10 0 -7 -6 -7 -19 0 -24 12 -36 30 -22 30 6 0 11 -4 11 -10z m130 -5
c9 -10 9 -15 1 -15 -6 0 -11 4 -11 10 0 5 -7 6 -17 3 -11 -4 -14 -3 -9 5 10
16 21 15 36 -3z m44 -1 c5 -14 4 -15 -9 -4 -17 14 -19 20 -6 20 5 0 12 -7 15
-16z m85 -48 c18 -16 30 -30 28 -33 -6 -5 -97 80 -97 90 0 4 8 -1 19 -10 10
-10 33 -31 50 -47z m76 35 c-6 -5 -25 10 -25 20 0 5 6 4 14 -3 8 -7 12 -15 11
-17z m120 19 c3 -5 1 -10 -4 -10 -6 0 -11 5 -11 10 0 6 2 10 4 10 3 0 8 -4 11
-10z m300 -28 c-6 -6 -34 11 -39 24 -4 11 0 10 18 -3 13 -10 23 -19 21 -21z
m176 21 c13 -16 12 -17 -3 -4 -10 7 -18 15 -18 17 0 8 8 3 21 -13z m-981 -15
c0 -6 -6 -5 -15 2 -8 7 -15 14 -15 16 0 2 7 1 15 -2 8 -4 15 -11 15 -16z m30
7 c11 -13 10 -14 -4 -9 -9 3 -16 10 -16 15 0 13 6 11 20 -6z m90 5 c0 -5 -4
-10 -10 -10 -5 0 -10 5 -10 10 0 6 5 10 10 10 6 0 10 -4 10 -10z m263 -39 c-2
-3 -16 8 -31 24 l-27 28 31 -24 c17 -13 30 -26 27 -28z m37 39 c0 -5 -2 -10
-4 -10 -3 0 -8 5 -11 10 -3 6 -1 10 4 10 6 0 11 -4 11 -10z m60 6 c0 -3 -4 -8
-10 -11 -5 -3 -10 -1 -10 4 0 6 5 11 10 11 6 0 10 -2 10 -4z m193 -16 c9 -11
13 -20 7 -20 -5 0 -14 9 -20 20 -6 11 -9 20 -8 20 2 0 11 -9 21 -20z m40 5
c-3 -9 -8 -14 -10 -11 -3 3 -2 9 2 15 9 16 15 13 8 -4z m197 -1 c0 -2 -7 -4
-15 -4 -8 0 -15 4 -15 10 0 5 7 7 15 4 8 -4 15 -8 15 -10z m80 -35 c0 -5 -11
3 -25 17 -14 14 -25 28 -25 31 0 4 11 -4 25 -17 14 -13 25 -27 25 -31z m-1110
31 c0 -5 -5 -10 -11 -10 -5 0 -7 5 -4 10 3 6 8 10 11 10 2 0 4 -4 4 -10z m443
-4 c4 -10 1 -13 -8 -9 -8 3 -12 9 -9 14 7 12 11 11 17 -5z m217 4 c0 -5 -2
-10 -4 -10 -3 0 -8 5 -11 10 -3 6 -1 10 4 10 6 0 11 -4 11 -10z m210 0 c0 -5
-2 -10 -4 -10 -3 0 -8 5 -11 10 -3 6 -1 10 4 10 6 0 11 -4 11 -10z m-547 -28
c-3 -12 -9 -19 -14 -16 -5 3 -3 14 3 24 15 24 19 21 11 -8z m407 22 c0 -8 -19
-13 -24 -6 -3 5 1 9 9 9 8 0 15 -2 15 -3z m435 -4 c3 -6 -1 -7 -9 -4 -18 7
-21 14 -7 14 6 0 13 -4 16 -10z m-780 -20 c10 -11 13 -20 7 -20 -6 0 -16 9
-22 20 -6 11 -9 20 -7 20 2 0 12 -9 22 -20z m390 10 c3 -6 -1 -7 -9 -4 -10 4
-16 1 -16 -7 0 -7 -3 -10 -6 -6 -7 7 4 27 16 27 5 0 12 -4 15 -10z m90 -18
c-6 -7 -34 11 -29 19 3 5 11 3 19 -4 7 -6 12 -13 10 -15z m-850 8 c3 -5 1 -10
-4 -10 -6 0 -11 5 -11 10 0 6 2 10 4 10 3 0 8 -4 11 -10z m240 -32 c22 -17 31
-28 21 -24 -12 4 -23 1 -28 -6 -6 -9 -7 -5 -3 10 4 15 2 22 -8 22 -8 0 -20 7
-27 15 -21 25 3 16 45 -17z m669 17 c11 -8 18 -17 15 -19 -2 -2 -15 4 -28 15
-27 22 -15 26 13 4z m436 5 c0 -5 -2 -10 -4 -10 -3 0 -8 5 -11 10 -3 6 -1 10
4 10 6 0 11 -4 11 -10z m-1180 -10 c0 -5 -2 -10 -4 -10 -3 0 -8 5 -11 10 -3 6
-1 10 4 10 6 0 11 -4 11 -10z m250 -64 c21 -27 18 -26 -20 8 -25 22 -47 44
-49 49 -6 16 42 -24 69 -57z m85 46 c-3 -3 -11 0 -18 7 -9 10 -8 11 6 5 10 -3
15 -9 12 -12z m100 8 c3 -5 1 -10 -4 -10 -6 0 -11 5 -11 10 0 6 2 10 4 10 3 0
8 -4 11 -10z m220 0 c3 -5 1 -10 -4 -10 -6 0 -11 5 -11 10 0 6 2 10 4 10 3 0
8 -4 11 -10z m243 -15 c-3 -3 -9 2 -12 12 -6 14 -5 15 5 6 7 -7 10 -15 7 -18z
m-954 -17 c-5 -8 -44 13 -44 23 0 4 11 2 24 -4 13 -7 22 -15 20 -19z m221 3
c-6 -5 -25 10 -25 20 0 5 6 4 14 -3 8 -7 12 -15 11 -17z m86 12 c13 -16 12
-17 -3 -4 -10 7 -18 15 -18 17 0 8 8 3 21 -13z m484 7 c3 -5 1 -10 -4 -10 -6
0 -11 5 -11 10 0 6 2 10 4 10 3 0 8 -4 11 -10z m-370 -10 c3 -5 1 -10 -4 -10
-6 0 -11 5 -11 10 0 6 2 10 4 10 3 0 8 -4 11 -10z m85 -31 c0 -14 -5 -11 -31
17 l-24 27 28 -18 c15 -9 27 -21 27 -26z m135 12 c-6 -5 -25 10 -25 20 0 5 6
4 14 -3 8 -7 12 -15 11 -17z m560 11 c-3 -3 -11 0 -18 7 -9 10 -8 11 6 5 10
-3 15 -9 12 -12z m116 1 c13 -16 12 -17 -3 -4 -10 7 -18 15 -18 17 0 8 8 3 21
-13z m-2511 0 c-1 -18 -27 -40 -55 -47 -35 -8 -225 -84 -240 -96 -5 -4 -44
-20 -85 -34 -59 -22 -256 -101 -385 -156 -11 -4 -49 -19 -85 -33 -118 -46
-294 -119 -355 -147 -33 -15 -91 -40 -130 -55 -70 -26 -140 -54 -205 -82 -19
-8 -88 -35 -153 -59 -65 -24 -137 -53 -159 -64 -23 -11 -48 -20 -55 -20 -7 0
-21 -4 -31 -10 -9 -5 -30 -14 -45 -20 -16 -5 -26 -13 -24 -17 3 -5 -9 -9 -27
-10 -17 -1 -71 -18 -121 -38 -49 -21 -121 -49 -160 -65 -239 -94 -221 -86
-270 -113 -46 -25 -122 -57 -137 -57 -22 -1 -89 -36 -81 -43 3 -4 -5 -7 -19
-7 -23 0 -68 -15 -123 -40 -11 -5 -67 -28 -125 -51 -58 -22 -116 -46 -130 -52
-14 -6 -27 -11 -30 -12 -3 -1 -22 -9 -42 -19 -21 -9 -40 -16 -43 -17 -2 0 -34
-16 -70 -35 -37 -19 -73 -34 -80 -34 -8 0 -36 -10 -62 -21 -44 -20 -86 -39
-171 -75 -17 -8 -47 -20 -65 -28 -77 -34 -245 -98 -273 -106 -17 -4 -71 -26
-120 -48 -49 -22 -102 -44 -119 -48 -16 -4 -34 -10 -40 -14 -5 -4 -44 -20 -85
-35 -41 -15 -100 -39 -130 -54 -30 -14 -57 -26 -60 -26 -21 -3 -95 -32 -140
-56 -31 -16 -85 -40 -120 -53 -67 -25 -220 -83 -255 -96 -11 -5 -46 -20 -79
-34 -65 -29 -88 -33 -66 -12 8 7 65 32 125 55 61 23 119 47 130 52 11 5 38 15
60 23 37 14 126 50 355 148 129 55 280 114 365 144 39 13 97 37 130 53 33 16
92 40 130 52 39 13 72 27 75 30 3 3 16 10 30 14 23 7 197 79 265 110 17 7 71
29 121 48 50 19 109 44 131 55 42 22 203 90 423 179 191 77 299 122 346 144
23 11 108 46 190 78 82 32 178 70 214 84 36 14 101 39 145 56 104 38 235 90
258 102 10 5 61 25 114 44 53 20 101 39 107 44 6 5 22 12 36 16 14 4 39 13 55
21 30 13 289 118 435 176 41 16 79 33 85 38 5 4 48 22 95 38 107 39 227 86
283 111 24 11 68 29 97 41 29 12 72 30 95 40 23 10 64 28 91 39 28 10 92 40
144 65 93 45 120 54 120 39z m1150 -28 c6 -19 16 -35 21 -35 5 0 9 -5 9 -11 0
-19 -20 2 -39 42 -11 21 -15 39 -11 39 5 0 14 -16 20 -35z m97 13 c-3 -8 -6
-5 -6 6 -1 11 2 17 5 13 3 -3 4 -12 1 -19z m813 -14 c0 -3 -7 -1 -15 6 -8 7
-15 17 -15 22 0 5 7 3 15 -6 8 -8 15 -18 15 -22z m-670 16 c0 -5 -4 -10 -10
-10 -5 0 -10 5 -10 10 0 6 5 10 10 10 6 0 10 -4 10 -10z m76 -17 c-6 -6 -36 9
-36 18 0 5 9 4 20 -3 10 -7 18 -14 16 -15z m195 1 c13 -14 17 -23 9 -19 -13 5
-46 45 -37 45 2 0 14 -11 28 -26z m250 9 c13 -16 12 -17 -3 -4 -10 7 -18 15
-18 17 0 8 8 3 21 -13z m-691 1 c0 -3 -7 -12 -15 -20 -13 -14 -17 -14 -32 2
-16 16 -16 16 5 10 13 -5 22 -3 22 3 0 6 5 11 10 11 6 0 10 -3 10 -6z m65 -4
c3 -5 1 -10 -4 -10 -6 0 -11 5 -11 10 0 6 2 10 4 10 3 0 8 -4 11 -10z m60 0
c3 -5 1 -10 -4 -10 -6 0 -11 5 -11 10 0 6 2 10 4 10 3 0 8 -4 11 -10z m200 -8
c-3 -3 -11 0 -18 7 -9 10 -8 11 6 5 10 -3 15 -9 12 -12z m60 8 c3 -5 1 -10 -4
-10 -6 0 -11 5 -11 10 0 6 2 10 4 10 3 0 8 -4 11 -10z m285 -15 c7 -9 8 -15 2
-15 -5 0 -12 7 -16 15 -3 8 -4 15 -2 15 2 0 9 -7 16 -15z m240 0 c7 -9 8 -15
2 -15 -5 0 -12 7 -16 15 -3 8 -4 15 -2 15 2 0 9 -7 16 -15z m-806 -11 c5 -14
4 -15 -9 -4 -17 14 -19 20 -6 20 5 0 12 -7 15 -16z m431 6 c3 -6 -1 -7 -9 -4
-18 7 -21 14 -7 14 6 0 13 -4 16 -10z m285 0 c0 -5 -4 -10 -10 -10 -5 0 -10 5
-10 10 0 6 5 10 10 10 6 0 10 -4 10 -10z m-552 -25 c-3 -3 -9 2 -12 12 -6 14
-5 15 5 6 7 -7 10 -15 7 -18z m246 10 c11 -8 16 -15 10 -15 -5 0 -18 7 -28 15
-11 8 -16 15 -10 15 5 0 18 -7 28 -15z m-508 -17 c0 -13 4 -32 8 -43 5 -13 2
-11 -8 5 -16 27 -21 60 -8 60 4 0 7 -10 8 -22z m92 -5 l27 -26 -28 17 c-21 13
-32 15 -42 6 -9 -8 -15 -8 -20 0 -3 5 1 10 9 10 9 0 16 5 16 10 0 16 9 12 38
-17z m37 17 c3 -5 1 -10 -4 -10 -6 0 -11 5 -11 10 0 6 2 10 4 10 3 0 8 -4 11
-10z m195 0 c0 -5 -2 -10 -4 -10 -3 0 -8 5 -11 10 -3 6 -1 10 4 10 6 0 11 -4
11 -10z m-120 -10 c0 -5 -2 -10 -4 -10 -3 0 -8 5 -11 10 -3 6 -1 10 4 10 6 0
11 -4 11 -10z m160 -5 c11 -13 10 -14 -4 -9 -9 3 -16 10 -16 15 0 13 6 11 20
-6z m120 0 c11 -13 10 -14 -4 -9 -9 3 -16 10 -16 15 0 13 6 11 20 -6z m211
-12 c13 -16 12 -17 -3 -4 -10 7 -18 15 -18 17 0 8 8 3 21 -13z m-421 -3 c8 -5
12 -11 10 -14 -3 -2 -14 2 -24 10 -22 15 -10 19 14 4z m191 -7 c13 -16 12 -17
-3 -4 -10 7 -18 15 -18 17 0 8 8 3 21 -13z m-487 -9 c9 -22 8 -24 -9 -18 -8 4
-15 12 -15 20 0 19 16 18 24 -2z m116 -34 c0 -8 -7 -2 -15 14 -19 36 -19 45 0
20 8 -10 14 -26 15 -34z m305 40 c3 -5 1 -10 -4 -10 -6 0 -11 5 -11 10 0 6 2
10 4 10 3 0 8 -4 11 -10z m136 -7 c13 -16 12 -17 -3 -4 -10 7 -18 15 -18 17 0
8 8 3 21 -13z m-217 -9 c3 -8 2 -12 -4 -9 -6 3 -10 10 -10 16 0 14 7 11 14 -7z
m321 6 c3 -5 2 -10 -4 -10 -5 0 -13 5 -16 10 -3 6 -2 10 4 10 5 0 13 -4 16
-10z m-590 -10 c3 -5 1 -10 -4 -10 -6 0 -11 5 -11 10 0 6 2 10 4 10 3 0 8 -4
11 -10z m166 -7 c13 -16 12 -17 -3 -4 -10 7 -18 15 -18 17 0 8 8 3 21 -13z
m290 0 c13 -16 12 -17 -3 -4 -10 7 -18 15 -18 17 0 8 8 3 21 -13z m-311 -13
c0 -5 -2 -10 -4 -10 -3 0 -8 5 -11 10 -3 6 -1 10 4 10 6 0 11 -4 11 -10z m160
0 c0 -5 -2 -10 -4 -10 -3 0 -8 5 -11 10 -3 6 -1 10 4 10 6 0 11 -4 11 -10z
m265 0 c3 -5 1 -10 -4 -10 -6 0 -11 5 -11 10 0 6 2 10 4 10 3 0 8 -4 11 -10z
m-620 -10 c3 -5 2 -10 -4 -10 -5 0 -13 5 -16 10 -3 6 -2 10 4 10 5 0 13 -4 16
-10z m75 -25 c0 -5 -5 -3 -10 5 -5 8 -10 20 -10 25 0 6 5 3 10 -5 5 -8 10 -19
10 -25z m100 13 c0 -6 -6 -5 -15 2 -8 7 -15 14 -15 16 0 2 7 1 15 -2 8 -4 15
-11 15 -16z m255 4 c-3 -3 -11 0 -18 7 -9 10 -8 11 6 5 10 -3 15 -9 12 -12z
m165 -4 c0 -6 -6 -5 -15 2 -8 7 -15 14 -15 16 0 2 7 1 15 -2 8 -4 15 -11 15
-16z m-349 -15 c13 -16 12 -17 -3 -4 -10 7 -18 15 -18 17 0 8 8 3 21 -13z
m260 0 c13 -16 12 -17 -3 -4 -10 7 -18 15 -18 17 0 8 8 3 21 -13z m-391 -3 c0
-5 -2 -10 -4 -10 -3 0 -8 5 -11 10 -3 6 -1 10 4 10 6 0 11 -4 11 -10z m24 -14
c-3 -9 -10 -16 -15 -16 -5 0 -4 9 3 20 14 22 21 20 12 -4z m61 -22 c17 -13 15
-12 -12 1 -18 8 -33 20 -33 26 0 6 4 6 13 -1 6 -6 21 -17 32 -26z m606 19 c13
-16 12 -17 -3 -4 -10 7 -18 15 -18 17 0 8 8 3 21 -13z m-711 -3 c0 -5 -2 -10
-4 -10 -3 0 -8 5 -11 10 -3 6 -1 10 4 10 6 0 11 -4 11 -10z m404 -6 c3 -8 2
-12 -4 -9 -6 3 -10 10 -10 16 0 14 7 11 14 -7z m46 -4 c0 -5 -2 -10 -4 -10 -3
0 -8 5 -11 10 -3 6 -1 10 4 10 6 0 11 -4 11 -10z m-170 -15 c7 -8 9 -15 6 -15
-4 0 -14 7 -22 15 -9 8 -11 15 -6 15 5 0 15 -7 22 -15z m-296 -6 c-3 -6 0 -15
7 -20 9 -6 10 -9 2 -9 -15 0 -26 17 -18 30 3 6 8 10 11 10 3 0 2 -5 -2 -11z
m81 -29 c3 -5 1 -10 -4 -10 -6 0 -11 5 -11 10 0 6 2 10 4 10 3 0 8 -4 11 -10z
m60 0 c3 -5 1 -10 -4 -10 -6 0 -11 5 -11 10 0 6 2 10 4 10 3 0 8 -4 11 -10z
m375 0 c0 -5 -2 -10 -4 -10 -3 0 -8 5 -11 10 -3 6 -1 10 4 10 6 0 11 -4 11
-10z m-160 -30 l13 -25 -20 20 c-11 11 -18 24 -16 28 6 10 7 9 23 -23z m104
-6 c3 -8 2 -12 -4 -9 -6 3 -10 10 -10 16 0 14 7 11 14 -7z m-313 -41 c13 -16
12 -17 -3 -4 -10 7 -18 15 -18 17 0 8 8 3 21 -13z m49 -43 c6 -11 8 -20 6 -20
-3 0 -10 9 -16 20 -6 11 -8 20 -6 20 3 0 10 -9 16 -20z m-120 -10 c0 -5 -2
-10 -4 -10 -3 0 -8 5 -11 10 -3 6 -1 10 4 10 6 0 11 -4 11 -10z m161 -7 c13
-16 12 -17 -3 -4 -10 7 -18 15 -18 17 0 8 8 3 21 -13z m-86 -23 c3 -5 1 -10
-4 -10 -6 0 -11 5 -11 10 0 6 2 10 4 10 3 0 8 -4 11 -10z m46 -67 c13 -16 12
-17 -3 -4 -10 7 -18 15 -18 17 0 8 8 3 21 -13z m-61 -13 c0 -5 -4 -10 -10 -10
-5 0 -10 5 -10 10 0 6 5 10 10 10 6 0 10 -4 10 -10z m104 -116 c3 -8 2 -12 -4
-9 -6 3 -10 10 -10 16 0 14 7 11 14 -7z m-4154 -484 c-8 -5 -19 -10 -25 -10
-5 0 -3 5 5 10 8 5 20 10 25 10 6 0 3 -5 -5 -10z m-2420 -80 c-8 -5 -19 -10
-25 -10 -5 0 -3 5 5 10 8 5 20 10 25 10 6 0 3 -5 -5 -10z m2050 -70 c0 -5 -8
-10 -17 -10 -15 0 -16 2 -3 10 19 12 20 12 20 0z m1776 -125 c27 -8 44 -45 44
-95 0 -89 -141 -133 -203 -62 -8 10 -17 43 -19 74 -5 61 -4 62 72 91 16 7 73
2 106 -8z m959 -316 c83 -14 231 -68 297 -110 27 -16 51 -29 55 -29 6 0 68
-50 108 -86 136 -125 189 -351 129 -555 -22 -75 -81 -212 -123 -284 -81 -141
-275 -332 -457 -451 -45 -29 -115 -79 -155 -111 -100 -80 -142 -107 -294 -194
-136 -78 -157 -88 -400 -193 -173 -74 -245 -103 -403 -157 -103 -36 -124 -40
-250 -45 -75 -3 -189 -9 -252 -13 -63 -5 -117 -7 -119 -5 -1 1 17 8 40 14 73
18 178 60 294 118 61 30 182 83 270 118 490 192 692 292 895 444 41 31 92 69
113 84 26 19 48 50 75 106 20 44 42 78 47 77 19 -6 45 -72 45 -113 0 -52 -20
-78 -101 -132 -66 -44 -97 -56 -58 -21 24 20 24 20 1 9 -12 -6 -26 -9 -31 -6
-11 7 -63 -34 -132 -106 -47 -48 -185 -148 -204 -148 -3 0 -41 -20 -83 -45
-105 -60 -263 -129 -380 -166 -93 -29 -202 -68 -307 -111 -73 -29 -205 -68
-234 -68 -15 -1 -37 -7 -51 -15 l-25 -15 25 4 c14 3 61 8 105 11 81 7 168 36
320 105 39 18 99 43 135 55 198 70 265 97 365 145 61 29 155 74 210 100 105
51 251 145 373 242 40 32 81 58 90 58 9 0 60 35 112 76 243 194 322 286 421
489 77 158 93 221 86 350 -5 117 -23 165 -93 256 -100 130 -287 246 -474 293
-52 13 -96 28 -97 33 -4 11 3 11 112 -8z m-245 -126 c42 -24 64 -87 42 -119
-30 -43 -108 -57 -152 -27 -39 26 -49 45 -50 85 0 28 6 41 26 57 33 26 95 28
134 4z m-1153 -156 c1 -45 7 -102 13 -127 6 -25 23 -101 36 -170 28 -145 26
-192 -16 -320 -30 -89 -108 -264 -109 -242 -1 6 -10 12 -20 12 -11 0 -23 5
-26 11 -5 7 -11 6 -18 -3 -9 -10 -50 -12 -174 -10 -145 3 -163 5 -163 20 -1
12 -5 10 -15 -8 -8 -14 -15 -20 -16 -15 -1 6 -5 -3 -9 -20 -7 -26 -8 -24 -9
20 -1 60 24 230 46 305 35 125 130 278 227 365 36 33 66 62 66 65 0 13 -286
43 -455 47 -214 5 -472 -19 -622 -58 -103 -27 -164 -21 -181 17 -11 22 -9 26
21 44 17 11 40 20 50 20 10 0 62 9 115 20 310 63 775 64 1068 3 l84 -17 -27
-31 c-15 -16 -2 -5 30 25 32 30 65 72 75 92 9 21 19 38 22 38 3 0 6 -37 7 -83z
m-1552 -97 c4 -6 23 -7 45 -4 l38 6 31 -63 c16 -35 51 -89 76 -119 25 -30 68
-91 96 -135 81 -129 190 -297 240 -366 25 -35 65 -98 89 -139 24 -41 73 -122
110 -180 37 -58 73 -116 80 -129 7 -13 52 -85 101 -160 94 -143 116 -197 121
-296 2 -46 0 -60 -12 -62 -15 -3 -38 31 -220 327 -45 74 -115 185 -155 245
-40 61 -87 137 -106 170 -18 33 -54 92 -80 130 -25 39 -93 142 -151 230 -175
264 -319 467 -352 494 -24 20 -20 29 15 36 23 5 28 9 18 16 -9 6 -10 9 -2 9 6
0 15 -5 18 -10z m1832 -65 c85 -34 117 -50 248 -120 120 -64 279 -181 384
-283 24 -23 45 -41 46 -40 14 21 28 83 39 168 7 58 19 119 26 135 l13 30 9
-50 c5 -27 16 -84 24 -126 28 -142 17 -191 -70 -313 -54 -76 -287 -285 -412
-372 -73 -50 6 -16 121 53 228 136 332 250 381 418 15 55 18 58 26 35 5 -14
10 -53 10 -87 0 -117 -64 -211 -243 -353 -142 -114 -330 -217 -629 -346 -25
-10 -151 -71 -280 -135 -223 -111 -362 -198 -474 -298 -38 -34 -24 -10 33 58
168 197 243 254 541 409 211 110 316 170 388 225 38 29 81 61 96 72 101 74
233 205 313 311 54 72 60 84 43 84 -5 0 -55 37 -112 83 -233 187 -464 327
-655 396 -69 25 -78 32 -81 56 -6 51 0 55 66 40 33 -8 100 -30 149 -50z
m-2497 41 c0 -3 -4 -8 -10 -11 -5 -3 -10 -1 -10 4 0 6 5 11 10 11 6 0 10 -2
10 -4z m400 -40 c0 -2 -7 -7 -16 -10 -8 -3 -12 -2 -9 4 6 10 25 14 25 6z m185
-38 c10 -22 40 -65 65 -97 25 -31 74 -101 108 -156 35 -55 113 -176 172 -270
60 -93 134 -213 166 -265 31 -52 107 -176 169 -275 61 -99 129 -211 150 -250
21 -38 64 -106 95 -150 64 -89 99 -154 111 -202 6 -31 5 -33 -18 -33 -43 0
-90 38 -135 108 -39 60 -120 186 -274 427 -32 50 -89 141 -126 203 -37 62 -96
156 -131 210 -35 53 -87 135 -117 182 -144 227 -284 431 -334 487 -31 33 -56
66 -56 71 0 11 53 32 81 32 11 0 19 4 19 8 0 4 8 8 18 9 11 1 24 -13 37 -39z
m3006 22 c41 -22 11 -120 -37 -120 -21 0 -74 54 -74 76 0 44 63 69 111 44z
m-5036 -19 c-8 -14 -91 -44 -106 -39 -7 2 12 14 42 25 63 24 72 26 64 14z
m1638 -38 c-7 -2 -19 -2 -25 0 -7 3 -2 5 12 5 14 0 19 -2 13 -5z m161 -28 c38
-18 93 -75 138 -142 88 -131 338 -527 494 -785 76 -126 218 -351 316 -502 43
-66 76 -121 74 -123 -6 -6 -126 56 -163 84 -31 24 -118 148 -205 293 -25 41
-107 174 -183 295 -76 121 -156 249 -178 285 -138 224 -286 424 -363 486 -26
22 -56 49 -67 62 -11 12 -28 22 -36 23 -12 0 -10 3 4 9 19 8 18 9 -4 9 -36 1
-17 14 32 21 60 9 100 4 141 -15z m-1944 5 c-8 -5 -22 -9 -30 -9 -10 0 -8 3 5
9 27 12 43 12 25 0z m1730 0 c0 -5 -4 -10 -10 -10 -5 0 -10 5 -10 10 0 6 5 10
10 10 6 0 10 -4 10 -10z m-1820 -35 c0 -9 -62 -36 -73 -32 -7 2 4 11 23 20 38
17 50 20 50 12z m3170 -8 c34 -17 70 -74 70 -109 0 -40 -57 -98 -96 -98 -74 0
-164 50 -164 91 0 91 108 158 190 116z m-3340 -65 c0 -5 -19 -15 -42 -22 -24
-8 -56 -20 -73 -28 -17 -8 -25 -9 -19 -3 8 9 118 59 132 61 1 0 2 -4 2 -8z
m2114 -8 c33 -32 13 -61 -107 -153 -221 -171 -521 -596 -587 -833 -27 -98 -26
-102 16 -73 44 30 134 57 264 81 73 13 124 15 225 11 184 -9 296 -31 474 -94
143 -50 289 -118 278 -130 -3 -2 -22 5 -43 16 -50 27 -56 26 -42 -3 9 -21 7
-31 -10 -58 -12 -18 -22 -30 -22 -25 0 9 -45 -36 -45 -45 0 -4 -10 -14 -22
-23 -14 -10 -19 -22 -16 -34 4 -16 1 -19 -19 -15 -22 5 -22 5 -4 -10 19 -15
17 -16 -25 -16 -55 0 -429 43 -567 65 -57 9 -127 25 -155 35 -29 11 -72 26
-97 35 -25 9 -87 35 -137 57 -85 37 -93 42 -93 68 0 31 -15 40 -66 40 -32 0
-33 1 -27 33 27 143 123 359 232 522 37 55 65 107 63 114 -3 8 0 11 7 7 6 -4
11 -3 11 3 0 5 7 17 17 26 14 14 14 18 2 27 -12 8 -12 9 1 5 21 -6 94 74 77
86 -8 6 -7 7 4 4 18 -6 119 92 119 114 0 7 3 9 7 6 10 -11 32 13 26 29 -3 8 0
14 7 14 6 0 8 -4 5 -10 -10 -17 12 -11 26 7 15 18 188 133 200 133 4 0 15 -7
23 -16z m6332 -101 c20 -38 44 -79 53 -93 15 -24 15 -24 -3 -11 -10 8 -34 47
-54 85 -46 88 -45 86 -39 86 3 0 22 -30 43 -67z m-8656 23 c0 -6 -141 -59
-145 -54 -2 2 26 16 63 31 67 26 82 30 82 23z m-202 -81 c-9 -9 -111 -45 -116
-41 -2 2 21 13 50 25 53 20 76 26 66 16z m2202 -35 c0 -5 -4 -10 -10 -10 -5 0
-10 5 -10 10 0 6 5 10 10 10 6 0 10 -4 10 -10z m1767 -27 c-3 -10 -5 -4 -5 12
0 17 2 24 5 18 2 -7 2 -21 0 -30z m-4097 13 c0 -2 -9 -6 -20 -9 -11 -3 -18 -1
-14 4 5 9 34 13 34 5z m4077 -28 c-3 -7 -5 -2 -5 12 0 14 2 19 5 13 2 -7 2
-19 0 -25z m-4153 -9 c-31 -12 -39 -10 -19 5 11 8 24 12 29 8 5 -3 1 -9 -10
-13z m9175 -39 c22 -33 43 -71 46 -83 6 -20 -18 15 -74 106 -36 59 -17 43 28
-23z m-9269 6 c0 -2 -7 -7 -16 -10 -8 -3 -12 -2 -9 4 6 10 25 14 25 6z m5986
-224 c16 -53 15 -54 -12 -108 -53 -105 -249 -265 -490 -401 -139 -79 -218
-116 -374 -177 -241 -95 -330 -134 -523 -229 -229 -112 -415 -175 -296 -101
98 61 136 86 199 130 65 46 412 221 544 274 178 72 370 167 475 234 36 24 91
59 121 78 81 52 231 198 262 254 14 27 32 69 38 94 11 42 13 43 26 25 8 -11
22 -44 30 -73z m-768 46 c21 -18 13 -51 -20 -85 -33 -34 -56 -40 -89 -23 -38
21 -15 100 35 120 22 9 53 4 74 -12z m-2314 -42 c59 -24 90 -98 67 -155 -14
-32 -76 -71 -116 -71 -37 0 -86 25 -120 60 -24 25 -27 35 -22 66 7 42 38 81
82 100 39 17 68 17 109 0z m6656 -257 c0 -6 -4 -7 -10 -4 -5 3 -10 11 -10 16
0 6 5 7 10 4 6 -3 10 -11 10 -16z m-3660 -163 c0 -2 -18 -15 -40 -30 -22 -14
-40 -23 -40 -18 0 4 17 18 38 30 39 23 42 24 42 18z m354 -159 c49 -153 66
-272 66 -456 0 -92 -5 -194 -10 -227 -23 -133 -33 -174 -45 -174 -14 0 -157
101 -151 107 2 3 16 -3 31 -13 34 -22 39 -14 53 80 30 193 22 374 -24 571 -40
174 -40 178 -10 194 14 8 26 19 26 24 0 6 9 2 19 -7 11 -10 31 -54 45 -99z
m-4216 -182 c2 -2 -1 -57 -8 -123 -19 -182 -1 -398 50 -598 41 -161 71 -244
89 -244 6 0 40 20 75 44 35 24 81 49 103 56 21 7 56 22 78 32 59 29 33 7 -160
-136 -93 -70 -187 -140 -208 -157 -83 -67 -225 -273 -344 -499 -99 -188 -126
-297 -127 -502 0 -95 3 -141 12 -150 16 -16 15 -31 0 -23 -7 4 -6 1 2 -7 9 -7
24 -33 34 -58 76 -189 119 -247 220 -294 39 -19 87 -37 106 -41 19 -4 41 -12
47 -17 11 -9 59 -24 188 -58 24 -6 25 -8 8 -9 -12 -1 -48 6 -80 15 -32 9 -85
23 -118 31 -66 16 -122 34 -175 56 -49 21 -200 171 -200 198 0 6 5 7 12 3 7
-4 8 -3 4 5 -4 6 -12 9 -17 6 -12 -8 -54 85 -80 181 -40 145 -25 356 38 538
40 118 66 166 179 337 84 127 163 216 262 299 l54 45 -41 110 c-22 61 -57 178
-78 260 -36 147 -37 153 -37 350 -1 127 4 231 13 284 l14 83 41 -6 c22 -4 42
-9 44 -11z m-1036 -118 c24 -37 -7 -97 -51 -97 -39 0 -75 41 -67 75 4 14 17
30 29 35 27 12 78 4 89 -13z m2996 -163 c-3 -3 -35 -12 -69 -20 -67 -16 -184
-52 -359 -111 -142 -48 -664 -290 -810 -376 -41 -24 -120 -70 -175 -102 -125
-72 -160 -100 -257 -200 -56 -57 -91 -105 -124 -169 -55 -105 -67 -103 -73 15
l-3 80 128 132 c151 154 210 205 281 241 29 14 84 46 122 71 82 53 504 260
643 316 149 59 292 99 408 114 107 13 298 20 288 9z m201 -49 c-3 -2 -58 -18
-122 -34 -87 -22 -150 -47 -254 -99 -76 -38 -214 -104 -308 -145 -239 -105
-502 -233 -663 -323 -75 -43 -157 -88 -182 -102 -44 -25 -194 -146 -256 -206
-17 -17 -55 -65 -84 -106 -69 -98 -70 -98 -44 -35 5 11 2 13 -10 9 -17 -7 -22
11 -6 21 6 3 10 22 10 41 0 64 114 201 246 295 87 62 405 241 554 312 344 163
372 175 605 262 210 78 269 95 359 105 88 9 161 12 155 5z m1277 -35 c129 -11
287 -39 334 -59 l25 -11 -25 4 c-100 19 -208 35 -225 35 -11 -1 -36 2 -55 5
-29 5 -26 3 15 -13 29 -11 41 -20 29 -20 -27 -1 -74 -24 -74 -36 0 -13 -72
-85 -85 -85 -6 0 -22 -18 -35 -40 -14 -21 -37 -44 -52 -51 -15 -6 -33 -17 -39
-25 -6 -8 -21 -14 -33 -14 -17 0 -19 -2 -6 -11 26 -18 -71 0 -198 36 -185 53
-620 211 -609 221 6 6 122 -29 128 -39 4 -6 15 -7 24 -3 9 3 26 1 37 -5 15 -8
19 -8 14 0 -4 6 -1 11 6 11 7 0 26 11 42 25 23 19 26 28 17 38 -9 12 17 16
161 26 324 22 440 24 604 11z m-4054 -60 c42 -37 43 -38 43 -103 0 -63 -2 -68
-37 -103 -31 -32 -45 -38 -90 -41 -98 -8 -172 66 -167 165 2 39 8 52 37 77 70
62 148 64 214 5z m2587 -18 c-29 -19 -154 -132 -298 -268 -125 -118 -122 -116
-371 -249 -74 -40 -166 -91 -205 -114 -38 -22 -108 -61 -155 -86 -92 -48 -285
-197 -341 -263 -19 -23 -53 -71 -74 -108 -26 -43 -41 -62 -43 -51 -2 9 -10 17
-17 17 -9 0 -12 6 -8 16 5 14 3 15 -15 5 -12 -7 -22 -9 -22 -6 0 27 146 208
221 275 143 126 149 129 564 355 244 133 317 176 312 181 -5 6 -46 -13 -362
-167 -394 -192 -626 -365 -749 -556 -48 -76 -58 -87 -49 -53 3 11 1 20 -5 20
-23 0 -18 44 13 108 38 78 121 164 235 243 41 28 91 64 110 79 56 44 411 229
581 304 68 30 153 69 189 88 36 19 110 53 165 77 55 24 125 58 155 76 118 70
244 128 169 77z m-1469 -34 c11 -12 20 -26 20 -31 0 -31 -92 -51 -103 -23 -9
23 3 53 26 64 31 15 34 15 57 -10z m3461 -8 c11 0 17 -4 14 -10 -8 -13 1 -13
25 0 16 9 18 7 15 -10 -3 -14 2 -20 16 -20 10 0 19 -4 19 -10 0 -5 11 -10 24
-10 14 0 27 -4 30 -8 13 -22 -68 -1 -124 32 -69 41 -86 53 -57 43 10 -4 28 -7
38 -7z m-1741 -25 c15 -14 62 -82 106 -151 43 -69 106 -166 138 -217 33 -51
120 -191 194 -312 74 -121 152 -245 172 -275 88 -131 160 -260 154 -277 -4
-13 -3 -15 4 -5 9 13 29 -14 99 -138 l14 -25 -20 24 c-21 23 -21 23 -21 2 0
-12 -4 -21 -10 -21 -5 0 -10 -7 -10 -17 0 -14 -2 -14 -21 3 l-22 19 18 -34
c13 -26 19 -31 26 -20 6 9 9 10 9 2 0 -6 -4 -15 -10 -18 -21 -13 54 -106 79
-98 14 4 14 3 1 -6 -18 -13 -40 -14 -40 -2 0 5 -17 35 -38 67 -22 33 -95 145
-164 249 -69 105 -165 258 -213 340 -49 83 -112 184 -140 225 -28 41 -79 125
-114 185 -35 61 -95 159 -134 219 -82 128 -157 264 -157 286 0 11 11 17 37 18
27 2 43 -3 63 -23z m217 -50 c23 -10 54 -31 71 -49 60 -64 231 -312 343 -499
22 -37 68 -110 102 -161 34 -52 75 -116 91 -143 16 -26 49 -79 74 -117 24 -38
54 -90 66 -117 13 -26 28 -55 35 -63 7 -8 9 -21 5 -27 -4 -8 -3 -9 4 -5 8 5
12 -1 12 -14 0 -12 4 -19 9 -15 6 3 15 -4 22 -17 8 -15 8 -23 1 -26 -5 -1 -8
-11 -5 -22 3 -10 -2 -29 -10 -41 -11 -15 -13 -28 -7 -45 5 -13 8 -24 6 -24 -4
0 -70 99 -181 273 -39 60 -106 164 -150 232 -44 68 -111 174 -150 235 -38 61
-124 194 -190 296 -275 422 -264 403 -218 380 15 -8 47 -22 70 -31z m-319
-107 c40 -86 133 -248 232 -403 32 -49 67 -110 79 -134 13 -24 48 -84 80 -135
32 -50 97 -158 146 -241 48 -82 101 -169 117 -192 15 -23 28 -54 28 -70 0 -15
9 -42 20 -60 11 -19 15 -35 10 -38 -6 -4 -10 -1 -10 6 0 7 -2 10 -5 7 -11 -11
8 -39 23 -33 12 4 13 3 2 -10 -11 -13 -8 -15 15 -15 23 0 25 -2 15 -15 -17
-20 -3 -40 18 -23 13 11 14 10 8 -17 -7 -28 -6 -29 7 -10 8 10 12 26 9 34 -9
24 42 -19 68 -57 13 -18 21 -34 19 -36 -53 -46 -372 -133 -609 -166 -111 -15
-480 -24 -550 -13 -54 8 -55 9 -56 43 -1 61 5 63 236 66 225 3 433 23 575 54
50 11 118 25 153 32 34 7 62 17 62 23 0 5 -16 35 -34 65 -19 30 -55 90 -80
132 -25 42 -105 170 -177 285 -73 114 -164 262 -204 328 -39 66 -92 152 -117
190 -26 39 -72 120 -103 180 l-58 110 6 70 c5 56 23 125 34 125 1 0 19 -37 41
-82z m-372 -200 c-23 -32 -19 -48 4 -19 11 13 20 19 20 14 0 -9 90 -2 146 12
20 4 22 0 28 -73 8 -98 16 -397 9 -359 -4 26 -6 27 -17 12 -8 -12 -31 -19 -67
-22 -63 -4 -129 -22 -129 -35 0 -4 -11 -8 -24 -8 -13 0 -42 -7 -65 -15 -39
-13 -45 -13 -78 5 -20 10 -40 17 -44 15 -4 -3 -5 5 -2 17 4 21 2 20 -22 -7
l-26 -30 20 50 c36 93 58 140 110 233 60 109 144 242 150 237 1 -2 -4 -14 -13
-27z m-2112 -34 c28 -28 11 -94 -25 -94 -22 0 -68 31 -74 50 -12 39 3 60 45
60 22 0 45 -7 54 -16z m4393 -104 c-6 -24 9 -36 20 -16 12 22 63 29 63 9 0
-25 -83 -192 -133 -268 -136 -206 -170 -248 -322 -400 -175 -176 -267 -248
-288 -225 -10 10 -9 12 6 7 9 -4 17 -3 17 1 0 14 -40 72 -50 72 -16 0 -12 22
8 37 9 7 42 30 72 51 30 20 114 95 185 167 131 131 258 299 346 455 74 133 87
152 76 110z m-551 -104 c30 -30 34 -41 34 -84 0 -88 -52 -130 -140 -111 -158
34 -138 229 24 229 41 0 53 -5 82 -34z m-4436 -6 c11 -11 20 -24 20 -30 0 -5
-9 -19 -20 -30 -35 -35 -82 -21 -82 24 0 53 45 73 82 36z m302 -37 c10 -9 18
-30 18 -49 0 -27 -6 -36 -29 -49 -35 -17 -54 -12 -75 20 -20 31 -20 54 1 77
20 22 61 23 85 1z m6658 -134 c0 -6 -15 -25 -34 -42 -29 -28 -35 -41 -41 -97
-4 -36 -5 -132 -3 -215 l3 -150 37 -60 c21 -33 62 -91 91 -130 44 -59 57 -70
80 -68 34 2 34 -2 0 -20 -16 -8 -72 -37 -126 -66 -93 -49 -127 -60 -127 -43 0
14 23 32 41 32 10 0 20 4 23 9 14 23 -94 211 -150 262 -38 34 -99 69 -278 159
-141 71 -153 75 -212 74 -100 -1 -82 12 160 117 49 21 92 36 95 33 3 -3 -7
-17 -23 -31 -29 -25 -29 -26 -10 -40 10 -8 44 -27 74 -42 141 -72 198 -104
233 -132 l37 -30 -2 188 -3 188 -42 -3 c-42 -2 -56 9 -30 25 21 13 192 93 200
93 4 0 7 -5 7 -11z m-4857 -127 c41 -35 2 -112 -57 -112 -34 1 -66 20 -66 40
0 22 43 89 59 93 21 4 42 -2 64 -21z m-503 -270 c178 -159 422 -298 658 -377
64 -21 116 -44 121 -54 4 -9 11 -36 15 -59 l7 -44 -33 7 c-70 16 -219 70 -338
124 -192 88 -379 212 -500 333 -45 45 -45 46 -25 72 8 11 15 28 15 38 0 10 3
18 8 18 4 0 36 -26 72 -58z m-1600 5 c54 -27 56 -97 5 -131 -35 -23 -53 -20
-86 13 -69 69 -6 162 81 118z m3232 -27 c9 -11 21 -20 26 -20 17 0 33 -60 22
-81 -39 -73 -170 -35 -172 50 -2 70 79 103 124 51z m2883 -74 c22 -41 37 -77
34 -80 -3 -3 -30 7 -60 24 -31 17 -69 30 -90 30 -40 0 -117 -25 -197 -64 l-52
-26 21 -43 c33 -64 122 -197 132 -197 15 0 121 67 141 89 10 11 15 24 11 30
-3 6 -2 18 3 27 8 15 11 14 24 -7 8 -13 34 -55 56 -92 56 -91 56 -101 0 -67
-18 11 -44 20 -58 20 -28 0 -124 -42 -134 -59 -8 -13 116 -216 156 -254 17
-16 36 -26 46 -23 70 21 70 14 2 -25 -41 -23 -101 -57 -133 -75 -32 -19 -69
-37 -83 -40 -32 -8 -32 14 1 26 18 7 25 17 25 35 0 32 -5 41 -99 190 -43 66
-87 140 -100 165 -12 25 -50 89 -84 143 l-62 98 -52 -7 c-29 -3 -53 -4 -53 -1
0 6 388 198 440 218 19 7 51 23 70 35 20 12 39 18 45 13 6 -4 29 -42 50 -83z
m-1866 -211 c-7 -7 -13 -5 -19 5 -15 24 -11 31 10 18 13 -9 16 -16 9 -23z
m-3237 -92 c37 -33 11 -103 -38 -103 -42 0 -72 78 -42 108 17 17 58 15 80 -5z
m4257 -21 c-9 -14 1 -41 51 -142 97 -196 104 -209 125 -233 24 -26 57 -94 75
-154 7 -23 16 -41 19 -39 3 2 7 -14 8 -36 1 -22 4 -42 6 -45 3 -2 28 3 55 12
120 39 48 -14 -82 -61 -57 -21 -64 -18 -71 29 -20 138 -48 201 -119 272 -23
23 -70 90 -106 149 -36 60 -75 119 -88 132 -24 25 -56 32 -67 14 -7 -12 -55
-14 -55 -2 0 8 92 52 108 52 4 0 32 16 62 35 60 39 98 47 79 17z m-305 -217
c17 -30 27 -57 24 -60 -3 -4 -31 5 -62 19 -31 14 -69 26 -85 26 -29 0 -90 -17
-104 -30 -4 -4 12 -32 35 -63 99 -129 155 -212 259 -379 60 -98 109 -179 109
-181 0 -3 -22 -7 -49 -9 -34 -3 -62 -14 -92 -36 -23 -18 -45 -29 -48 -26 -3 3
2 11 12 18 9 7 17 19 17 26 0 17 -34 71 -101 160 -31 41 -76 109 -100 151 -67
116 -172 258 -190 259 -9 0 -39 -15 -65 -32 -48 -32 -49 -34 -52 -90 -2 -32
-7 -58 -12 -58 -6 0 -10 6 -10 13 0 6 -16 43 -35 81 -19 39 -32 73 -28 76 10
9 253 110 264 110 4 0 63 27 131 60 140 69 125 72 182 -35z m-714 -230 c0 -14
-5 -34 -12 -44 -10 -16 1 -41 69 -167 114 -211 159 -304 168 -344 4 -19 16
-50 26 -69 11 -18 18 -35 16 -37 -13 -13 -259 91 -439 187 -55 29 -295 129
-310 129 -4 0 5 -19 21 -42 59 -89 179 -276 219 -344 61 -103 69 -108 142
-101 33 4 60 5 60 3 0 -12 -190 -111 -242 -126 l-27 -8 30 40 c33 46 35 68 15
126 -20 57 -205 361 -268 439 l-52 65 -68 -4 c-37 -3 -68 -2 -68 3 0 12 184
99 209 99 25 0 223 -59 296 -88 28 -11 104 -46 171 -78 144 -70 177 -85 181
-81 1 2 -8 19 -21 38 -13 19 -50 83 -82 143 -33 61 -75 127 -95 148 -33 34
-41 38 -87 38 -63 0 -68 15 -9 30 59 15 88 28 117 50 33 26 40 25 40 -5z
m2945 -96 c-44 -22 -132 -63 -195 -91 -63 -27 -144 -64 -180 -80 -111 -51
-130 -59 -130 -49 0 13 167 95 380 186 189 81 254 98 125 34z m-1615 -89 c0
-5 -5 -10 -11 -10 -5 0 -7 5 -4 10 3 6 8 10 11 10 2 0 4 -4 4 -10z m-4413 -26
c-3 -3 -12 -4 -19 -1 -8 3 -5 6 6 6 11 1 17 -2 13 -5z m103 -14 c11 -7 8 -9
-15 -9 -16 1 -41 5 -55 9 -22 7 -20 8 15 9 22 0 47 -4 55 -9z m5240 -110 c0
-13 -7 -20 -20 -20 -20 0 -28 -15 -12 -22 7 -2 47 -61 86 -125 5 -9 0 -13 -13
-13 -14 0 -34 21 -63 62 -24 34 -46 66 -49 70 -3 5 -22 2 -42 -7 -45 -19 -47
-19 -47 0 0 17 111 75 143 75 10 0 17 -8 17 -20z m-182 -145 c33 -52 57 -97
52 -100 -4 -3 -43 6 -86 20 -43 14 -82 25 -87 25 -10 0 10 -37 44 -81 l28 -35
-30 4 c-17 3 -37 15 -48 31 -21 30 -81 150 -81 162 0 4 33 -7 73 -25 39 -19
82 -37 95 -41 l23 -7 -24 49 c-63 124 -40 124 41 -2z m-2967 13 c19 -39 41
-78 49 -86 13 -14 12 -15 -10 -10 -14 4 -54 18 -89 33 -58 24 -68 26 -110 15
-25 -6 -70 -22 -100 -36 -29 -13 -60 -24 -68 -24 -8 0 -13 -6 -10 -12 3 -7 13
-33 22 -58 23 -60 107 -189 123 -190 19 0 110 52 134 77 15 16 22 35 21 61 -1
32 1 34 11 18 6 -10 19 -26 29 -35 26 -23 90 -111 85 -117 -3 -2 -18 1 -35 6
-26 10 -43 6 -122 -26 -50 -20 -94 -40 -97 -45 -3 -5 3 -21 14 -37 10 -15 45
-73 76 -129 31 -56 64 -107 73 -112 12 -6 32 -3 65 10 67 26 150 68 171 87 20
17 22 67 7 140 -7 30 -7 57 -2 73 l10 24 11 -25 c5 -14 24 -62 42 -108 22 -59
37 -86 52 -91 19 -7 4 -17 -92 -65 -62 -32 -148 -70 -190 -86 -42 -15 -105
-42 -141 -59 -79 -36 -120 -48 -120 -32 0 6 12 17 26 23 36 17 27 41 -60 173
-41 61 -91 146 -113 190 -39 79 -109 197 -146 245 -13 17 -29 25 -50 25 -16 0
-32 6 -34 12 -5 15 18 25 110 48 37 10 84 29 105 43 31 22 296 150 313 151 3
1 21 -31 40 -71z m2669 -47 c0 -11 -12 -23 -30 -31 -33 -14 -38 -31 -15 -50
12 -10 21 -10 42 -1 37 17 41 5 10 -27 -15 -16 -27 -36 -27 -46 0 -19 -3 -19
93 -1 57 11 47 -12 -18 -41 -31 -14 -63 -23 -71 -20 -8 3 -29 36 -45 73 -17
38 -36 79 -42 92 -8 16 -9 25 -2 28 6 2 26 12 45 23 45 24 60 25 60 1z m-165
-172 c31 -55 54 -103 51 -106 -9 -9 -65 57 -72 83 -9 37 -24 18 -24 -31 0 -45
-11 -62 -32 -49 -7 5 -21 9 -30 9 -10 1 -30 13 -44 26 -24 22 -24 19 11 -49
37 -70 41 -98 10 -72 -17 14 -115 182 -115 198 0 16 54 -2 104 -36 l44 -30 6
30 c3 17 6 52 6 79 0 35 4 49 14 49 8 0 40 -45 71 -101z m-327 -51 c-3 -7 -21
-22 -41 -33 -20 -11 -37 -28 -37 -37 0 -24 36 -32 62 -14 45 32 68 7 27 -30
-29 -26 -39 -48 -30 -63 7 -10 18 -9 57 8 40 18 52 20 71 10 21 -11 19 -13
-38 -40 -75 -36 -85 -36 -103 -1 -8 15 -35 55 -60 90 -25 34 -46 65 -46 70 0
10 91 50 118 51 15 1 22 -4 20 -11z m-2928 -35 l-43 -37 6 -93 c6 -94 25 -253
52 -459 8 -61 15 -136 15 -167 l0 -56 -52 39 c-633 469 -650 479 -721 465 -32
-7 -32 -7 -10 9 12 9 74 39 138 66 93 39 115 45 113 32 -4 -26 20 -53 107
-117 44 -32 108 -81 141 -109 90 -75 205 -158 210 -153 7 6 -14 295 -28 392
-16 121 -21 129 -66 121 -20 -3 -48 -9 -61 -13 -41 -11 -14 17 43 43 28 14 71
36 95 49 24 14 58 25 74 25 l31 0 -44 -37z m2710 -68 c10 -12 10 -15 -1 -15
-8 0 -27 -11 -43 -25 -32 -28 -31 -53 5 -98 23 -31 54 -35 81 -10 29 26 22 43
-17 43 -37 0 -43 8 -23 28 20 20 65 14 82 -10 50 -70 -31 -136 -113 -93 -47
24 -81 72 -81 113 0 45 8 58 40 71 36 14 56 13 70 -4z m-180 -133 c36 -32 85
-73 109 -90 38 -28 41 -32 20 -31 -13 0 -39 6 -58 13 -28 10 -40 9 -68 -3 -31
-14 -33 -19 -29 -49 4 -27 2 -33 -12 -30 -12 2 -19 22 -28 78 -14 87 -17 170
-6 170 4 0 36 -26 72 -58z m-204 -97 c25 -52 50 -97 55 -101 15 -9 10 -34 -7
-34 -9 0 -52 16 -96 36 -44 20 -82 33 -85 30 -3 -3 10 -30 30 -61 41 -61 43
-65 25 -65 -11 0 -41 41 -128 176 -22 34 -7 38 47 14 26 -12 67 -28 90 -35
l41 -14 -24 71 c-28 85 -28 78 -9 78 10 0 33 -36 61 -95z m-315 -114 c24 -16
66 -52 94 -80 41 -42 47 -53 35 -61 -11 -7 -22 -2 -42 17 -20 19 -31 23 -40
16 -7 -6 -30 -16 -51 -23 -36 -11 -37 -13 -31 -47 5 -28 4 -35 -7 -31 -16 5
-27 71 -28 171 -1 78 4 81 70 38z m-2968 -78 c25 -43 49 -86 53 -95 9 -27 -18
-22 -46 7 -34 36 -101 59 -147 50 -46 -8 -203 -75 -203 -86 0 -9 102 -188 133
-234 11 -16 21 -31 22 -32 0 -1 33 13 73 32 68 33 72 37 83 80 16 64 36 59 86
-22 50 -83 76 -133 67 -133 -3 0 -24 16 -47 35 -22 19 -49 35 -59 35 -24 0
-180 -79 -176 -89 21 -51 142 -271 149 -271 24 0 199 90 233 120 l38 34 -4 90
c-3 80 -1 91 15 94 11 2 17 -3 17 -16 0 -22 31 -115 56 -167 9 -20 15 -37 13
-39 -9 -9 -258 -126 -309 -146 -30 -12 -102 -46 -160 -77 l-105 -56 32 37 c28
30 31 40 23 61 -23 61 -168 333 -248 465 l-87 145 -50 -2 -50 -3 23 19 c12 11
46 27 75 36 28 10 115 47 192 84 77 37 165 79 195 93 30 15 57 27 61 27 3 1
26 -34 52 -76z m2761 -61 c57 -99 67 -132 42 -132 -7 0 -26 28 -42 63 l-28 62
-11 -50 c-16 -77 -19 -79 -76 -50 -27 14 -49 21 -49 16 0 -5 16 -32 35 -60 28
-42 31 -53 19 -58 -8 -3 -16 -4 -18 -2 -1 2 -28 44 -59 93 -57 90 -68 116 -44
116 17 0 88 -38 113 -61 11 -11 24 -16 27 -12 4 3 7 41 7 83 0 122 10 121 84
-8z m-444 -159 c0 -7 -7 -13 -15 -13 -31 0 -26 -31 14 -92 44 -68 49 -83 27
-91 -16 -6 -30 12 -70 91 -25 50 -29 53 -54 47 -47 -13 -57 -11 -57 10 0 13
20 30 65 56 58 34 66 36 78 21 6 -9 12 -22 12 -29z m-239 -85 c7 -18 35 -66
62 -106 27 -40 46 -76 42 -80 -3 -4 -21 2 -38 12 -29 17 -140 56 -160 56 -11
0 18 -52 49 -90 22 -25 24 -34 14 -40 -20 -12 -23 -9 -74 81 -65 116 -63 125
29 90 28 -10 61 -22 74 -26 27 -8 28 -13 -13 78 -19 42 -22 57 -12 57 7 0 20
-15 27 -32z m-251 -131 c0 -17 -10 -28 -36 -40 -24 -12 -34 -23 -32 -35 4 -17
9 -17 71 -5 35 7 34 -7 -3 -40 -30 -27 -39 -60 -19 -72 5 -4 28 5 49 19 22 14
44 26 49 26 9 0 24 -30 18 -36 -10 -11 -112 -52 -118 -48 -11 6 -99 176 -99
189 0 10 93 63 113 64 4 1 7 -9 7 -22z m-201 -198 c7 -67 10 -123 7 -126 -6
-6 -98 62 -161 120 -67 61 -36 63 44 2 89 -68 88 -69 65 88 -5 32 -3 37 14 37
17 0 20 -12 31 -121z m-269 -14 c0 -8 -18 -27 -40 -41 -22 -15 -40 -30 -40
-34 0 -16 26 -29 40 -20 18 12 70 13 70 3 0 -5 -16 -22 -36 -39 -33 -27 -35
-33 -25 -52 14 -27 28 -27 66 -2 40 26 55 25 55 -4 0 -19 -10 -28 -51 -45 -28
-13 -57 -20 -65 -17 -12 5 -104 183 -104 203 0 7 104 60 123 62 4 1 7 -6 7
-14z m-297 -260 c-12 -9 -96 -49 -185 -89 -90 -40 -221 -101 -293 -136 -71
-34 -146 -69 -165 -77 -35 -15 -35 -15 -17 5 26 28 623 309 662 311 18 1 18 0
-2 -14z m5317 -272 c18 -48 20 -113 3 -113 -7 0 -13 -7 -13 -15 0 -8 -4 -15
-9 -15 -4 0 -19 -22 -32 -50 -13 -27 -27 -50 -32 -50 -5 0 -8 -10 -7 -22 4
-41 0 -54 -18 -74 -10 -11 -22 -33 -26 -48 -8 -31 -112 -140 -144 -150 -10 -4
-79 -8 -153 -10 -87 -2 -134 -7 -137 -15 -2 -7 -9 -8 -22 -1 -10 5 -25 7 -33
4 -10 -3 -29 17 -59 63 -49 74 -98 166 -98 183 0 6 24 22 53 35 28 12 111 51
182 85 248 118 495 228 515 229 10 1 22 -15 30 -36z m477 -760 c-4 -3 -46 -21
-93 -39 -47 -17 -82 -28 -77 -23 7 7 157 67 172 69 2 0 1 -3 -2 -7z"/>
<path d="M8125 10160 c3 -5 8 -10 11 -10 2 0 4 5 4 10 0 6 -5 10 -11 10 -5 0
-7 -4 -4 -10z"/>
<path d="M7695 10160 c3 -5 8 -10 11 -10 2 0 4 5 4 10 0 6 -5 10 -11 10 -5 0
-7 -4 -4 -10z"/>
<path d="M7860 10010 c0 -5 5 -10 11 -10 5 0 7 5 4 10 -3 6 -8 10 -11 10 -2 0
-4 -4 -4 -10z"/>
<path d="M8740 9890 c0 -5 5 -10 10 -10 6 0 10 5 10 10 0 6 -4 10 -10 10 -5 0
-10 -4 -10 -10z"/>
<path d="M7995 9851 c-6 -11 15 -51 27 -51 12 0 10 18 -2 25 -6 4 -8 10 -5 15
3 5 1 11 -4 14 -5 4 -12 2 -16 -3z"/>
<path d="M5388 4313 c7 -3 16 -2 19 1 4 3 -2 6 -13 5 -11 0 -14 -3 -6 -6z"/>
<path d="M5450 4290 c0 -5 5 -10 11 -10 5 0 7 5 4 10 -3 6 -8 10 -11 10 -2 0
-4 -4 -4 -10z"/>
<path d="M5470 4261 c0 -5 5 -13 10 -16 6 -3 10 -2 10 4 0 5 -4 13 -10 16 -5
3 -10 2 -10 -4z"/>
<path d="M5620 4421 c0 -6 4 -13 10 -16 6 -3 7 1 4 9 -7 18 -14 21 -14 7z"/>
<path d="M5403 3973 c4 -3 5 -9 1 -14 -7 -12 7 -11 26 1 9 6 10 10 3 10 -6 0
-17 2 -25 3 -7 2 -10 2 -5 0z"/>
<path d="M4170 5135 c-11 -13 -10 -14 4 -9 9 3 16 10 16 15 0 13 -6 11 -20 -6z"/>
<path d="M4137 5075 c-9 -19 -15 -35 -12 -35 7 0 37 61 33 66 -3 2 -12 -12
-21 -31z"/>
<path d="M6591 2525 c-1 -42 12 -57 43 -53 l28 3 -36 40 -35 40 0 -30z"/>
<path d="M6080 2275 c0 -30 3 -35 23 -35 12 0 29 5 37 10 12 7 11 13 -10 34
-33 36 -50 33 -50 -9z"/>
<path d="M1911 10183 c17 -32 43 -78 57 -103 13 -25 30 -52 37 -60 6 -8 15
-23 18 -33 6 -17 42 -74 150 -237 27 -41 53 -74 59 -72 5 1 7 -2 3 -8 -5 -8
27 -64 46 -80 3 -3 32 -47 63 -97 42 -69 64 -95 83 -99 36 -9 111 11 213 57
47 21 112 49 145 62 33 13 161 68 285 122 124 53 241 103 260 111 53 19 169
69 220 92 25 12 81 35 125 51 44 16 130 50 190 76 61 26 153 61 205 79 53 18
110 41 128 50 37 19 356 132 393 139 13 2 -592 5 -1344 6 l-1369 1 33 -57z"/>
<path d="M9370 10238 c0 -4 11 -24 25 -44 14 -21 25 -30 25 -21 0 15 -49 79
-50 65z"/>
<path d="M7810 10120 c0 -5 5 -10 11 -10 5 0 7 5 4 10 -3 6 -8 10 -11 10 -2 0
-4 -4 -4 -10z"/>
</g>
</svg>
